<svg id="Слой_18" data-name="Слой 18" xmlns="http://www.w3.org/2000/svg" viewBox="0 0 797.66 794.05"><defs><style>.cls-1{fill:#1f1b3b;stroke:#1d1d1b;stroke-miterlimit:10;}.cls-2{fill:#e6a754;}.cls-3{fill:#d64b95;}.cls-4{fill:#58bfee;}</style></defs><rect class="cls-1" x="160.97" y="167.03" width="311.85" height="330.19" rx="91.72" transform="translate(-198.91 -101.62) rotate(-9.29)"/><rect class="cls-1" x="613.68" y="290.38" width="311.85" height="330.19" rx="91.72" transform="translate(50.43 -390.96) rotate(19.81)"/><rect class="cls-1" x="263.56" y="608.33" width="311.85" height="330.19" rx="91.72" transform="translate(-306.45 -48.39) rotate(-12.46)"/><path class="cls-2" d="M214.37,441.92c20.23-141.24,33-222,51.36-225.63s99.06,141.25,100.89,188.94-36.68,47.69-42.19,23.85-33-137.58-44-132.08-14.68,123.05-31.19,147.74S212.27,456.56,214.37,441.92Z" transform="translate(-149.46 -157.11)"/><path class="cls-2" d="M249.22,381.38c31.19,1.84,73.38-1.83,78.88-9.17s1-39.24-12.84-34.78-66,22-66,22Z" transform="translate(-149.46 -157.11)"/><path class="cls-2" d="M364.15,268.15c-10.83,19.25,42.19,18.35,36.69,0S380.66,238.8,364.15,268.15Z" transform="translate(-149.46 -157.11)"/><path class="cls-2" d="M387.43,325.68c2.36,56.27,11.2,88.3,22.79,96.11s22.55-20.38,17.43-42.57-29.23-91.7-35.69-77.35S387.43,325.68,387.43,325.68Z" transform="translate(-149.46 -157.11)"/><path class="cls-3" d="M318.8,722.53c11.27,97.81,40.69,177,54.94,170.16,11.73-5.66,9-40,.42-77.21s-14.61-104.34-37.65-127C319.26,671.47,318.8,722.53,318.8,722.53Z" transform="translate(-149.46 -157.11)"/><path class="cls-4" d="M664.72,523.74c33.62-86.62,57.85-200.83,85.94-202.7s106,45.28,73.86,90.26S729.69,435.8,728,429.11s-30.87,89.43-44.7,107S658,541.15,664.72,523.74Z" transform="translate(-149.46 -157.11)"/><path class="cls-1" d="M732.7,400.41c7.9-30.35,24.59-52.23,31.73-47.46s48.54,13.87,39.89,45.33C795.25,431.32,732.7,400.41,732.7,400.41Z" transform="translate(-149.46 -157.11)"/><path class="cls-3" d="M483.59,667.1C509,748.32,561.26,844.79,536.24,861S407.5,884,408,834s72.54-68.12,78.54-64.13-29.82-81.83-28.44-102S478.48,650.76,483.59,667.1Z" transform="translate(-149.46 -157.11)"/><path class="cls-1" d="M499.83,793.81c10.73,26.45,9.79,51.3,1.48,51.54S455.22,860.64,444.45,833C433.14,803.92,499.83,793.81,499.83,793.81Z" transform="translate(-149.46 -157.11)"/><path class="cls-4" d="M816.72,474.37c-46.05-23.42-93.72,10-37.46,66.15,29.34,29.3,22.62,44.11-6.63,27.79-36.27-20.24-47.24-5.5-40.59.44s67.25,41.27,86.62,21.67c14.29-14.45,7-38.24-17-62.54-21.72-22.06-25.32-46.78,11.35-24.24C837.19,518.48,829,480.6,816.72,474.37Z" transform="translate(-149.46 -157.11)"/></svg>