<svg xmlns="http://www.w3.org/2000/svg" viewBox="0 0 2834.98 1351.2"><defs><style>.cls-1{opacity:0.82;}.cls-2{fill:#edeaf9;}.cls-3{fill:#faf9fc;}.cls-4{fill:#53257f;opacity:0.2;}</style></defs><g id="Слой_1" data-name="Слой 1"><g class="cls-1"><rect class="cls-2" x="1889.98" y="0.06" width="135" height="135"/><rect class="cls-2" x="2024.98" y="135.06" width="135" height="135"/><rect class="cls-2" x="1889.98" y="270.06" width="135" height="135"/><rect class="cls-2" x="2159.98" width="135" height="135"/><rect class="cls-2" x="2429.98" width="135" height="135"/><rect class="cls-2" x="2294.98" y="135" width="135" height="135"/><rect class="cls-2" x="2159.98" y="270" width="135" height="135"/><rect class="cls-2" x="2429.98" y="270" width="135" height="135"/><rect class="cls-2" x="2699.98" y="0.18" width="135" height="135"/><rect class="cls-2" x="2564.98" y="135.18" width="135" height="135"/><rect class="cls-2" x="2699.98" y="270.17" width="135" height="135"/><rect class="cls-2" x="2432.16" y="949.87" width="135" height="135" transform="translate(5267.13 2165.51) rotate(180)"/><rect class="cls-2" x="2297.16" y="814.87" width="135" height="135" transform="translate(4997.14 1895.51) rotate(180)"/><rect class="cls-2" x="2432.16" y="679.76" width="135" height="135" transform="translate(5267.13 1625.28) rotate(180)"/><rect class="cls-2" x="2297.16" y="544.58" width="135" height="135" transform="translate(4997.14 1354.93) rotate(180)"/><rect class="cls-2" x="2432.16" y="409.58" width="135" height="135" transform="translate(5267.13 1084.93) rotate(180)"/><rect class="cls-2" x="2297.16" y="274.58" width="135" height="135" transform="translate(4997.14 814.93) rotate(180)"/><rect class="cls-2" x="2162.16" y="949.69" width="135" height="135" transform="translate(4727.14 2165.16) rotate(180)"/><rect class="cls-2" x="1892.16" y="949.69" width="135" height="135" transform="translate(4187.14 2165.16) rotate(180)"/><rect class="cls-2" x="2027.16" y="814.7" width="135" height="135" transform="translate(4457.14 1895.16) rotate(180)"/><rect class="cls-2" x="2162.16" y="679.58" width="135" height="135" transform="translate(4727.14 1624.92) rotate(180)"/><rect class="cls-2" x="1892.16" y="679.7" width="135" height="135" transform="translate(4187.14 1625.16) rotate(180)"/><rect class="cls-2" x="1622.16" y="949.75" width="135" height="135" transform="translate(3647.15 2165.27) rotate(180)"/><rect class="cls-2" x="1757.16" y="814.75" width="135" height="135" transform="translate(3917.14 1895.28) rotate(180)"/><rect class="cls-2" x="1622.16" y="679.64" width="135" height="135" transform="translate(3647.15 1625.04) rotate(180)"/><rect class="cls-2" x="2027.16" y="544.4" width="135" height="135" transform="translate(4457.14 1354.57) rotate(180)"/><rect class="cls-2" x="2162.16" y="409.4" width="135" height="135" transform="translate(4727.14 1084.58) rotate(180)"/><rect class="cls-2" x="1892.16" y="409.4" width="135" height="135" transform="translate(4187.14 1084.58) rotate(180)"/><rect class="cls-2" x="2027.16" y="274.41" width="135" height="135" transform="translate(4457.14 814.58) rotate(180)"/><rect class="cls-2" x="1757.16" y="544.46" width="135" height="135" transform="translate(3917.14 1354.69) rotate(180)"/><rect class="cls-2" x="1622.16" y="409.46" width="135" height="135" transform="translate(3647.15 1084.69) rotate(180)"/><rect class="cls-2" x="1757.16" y="274.46" width="135" height="135" transform="translate(3917.14 814.7) rotate(180)"/><rect class="cls-2" x="2297.16" y="1084.87" width="135" height="135" transform="translate(4997.14 2435.51) rotate(180)"/><rect class="cls-2" x="2027.16" y="1084.69" width="135" height="135" transform="translate(4457.14 2435.15) rotate(180)"/><rect class="cls-2" x="1757.16" y="1084.75" width="135" height="135" transform="translate(3917.14 2435.27) rotate(180)"/><rect class="cls-2" x="944.99" y="1216.14" width="135" height="135"/><rect class="cls-2" x="1079.99" y="1081.14" width="135" height="135"/><rect class="cls-2" x="944.99" y="946.14" width="135" height="135"/><rect class="cls-2" x="1214.99" y="1216.2" width="135" height="135"/><rect class="cls-2" x="1484.99" y="1216.2" width="135" height="135"/><rect class="cls-2" x="1349.99" y="1081.2" width="135" height="135"/><rect class="cls-2" x="1214.99" y="946.2" width="135" height="135"/><rect class="cls-2" x="1484.99" y="946.2" width="135" height="135"/><rect class="cls-2" x="1754.99" y="1216.02" width="135" height="135"/><rect class="cls-2" x="1619.99" y="1081.02" width="135" height="135"/><rect class="cls-2" x="1754.99" y="946.02" width="135" height="135"/><rect class="cls-2" x="1487.16" y="4.79" width="135" height="135" transform="translate(3377.15 275.35) rotate(180)"/><rect class="cls-2" x="1352.17" y="139.79" width="135" height="135" transform="translate(3107.15 545.35) rotate(180)"/><rect class="cls-2" x="1487.16" y="274.91" width="135" height="135" transform="translate(3377.15 815.58) rotate(180)"/><rect class="cls-2" x="1352.17" y="410.08" width="135" height="135" transform="translate(3107.15 1085.93) rotate(180)"/><rect class="cls-2" x="1487.16" y="545.08" width="135" height="135" transform="translate(3377.15 1355.93) rotate(180)"/><rect class="cls-2" x="1352.17" y="680.08" width="135" height="135" transform="translate(3107.15 1625.92) rotate(180)"/><rect class="cls-2" x="1217.17" y="4.97" width="135" height="135" transform="translate(2837.15 275.7) rotate(180)"/><rect class="cls-2" x="947.17" y="4.97" width="135" height="135" transform="translate(2297.16 275.7) rotate(180)"/><rect class="cls-2" x="1082.17" y="139.97" width="135" height="135" transform="translate(2567.16 545.7) rotate(180)"/><rect class="cls-2" x="1217.17" y="275.08" width="135" height="135" transform="translate(2837.15 815.93) rotate(180)"/><rect class="cls-2" x="947.17" y="274.96" width="135" height="135" transform="translate(2297.16 815.7) rotate(180)"/><rect class="cls-2" x="677.17" y="4.91" width="135" height="135" transform="translate(1757.16 275.58) rotate(180)"/><rect class="cls-2" x="812.17" y="139.91" width="135" height="135" transform="translate(2027.16 545.58) rotate(180)"/><rect class="cls-2" x="677.17" y="275.02" width="135" height="135" transform="translate(1757.16 815.81) rotate(180)"/><rect class="cls-2" x="1082.17" y="410.26" width="135" height="135" transform="translate(2567.16 1086.28) rotate(180)"/><rect class="cls-2" x="1217.17" y="545.26" width="135" height="135" transform="translate(2837.15 1356.28) rotate(180)"/><rect class="cls-2" x="947.17" y="545.26" width="135" height="135" transform="translate(2297.16 1356.28) rotate(180)"/><rect class="cls-2" x="1082.17" y="680.26" width="135" height="135" transform="translate(2567.16 1626.28) rotate(180)"/><rect class="cls-2" x="812.17" y="410.2" width="135" height="135" transform="translate(2027.16 1086.16) rotate(180)"/><rect class="cls-2" x="677.17" y="545.2" width="135" height="135" transform="translate(1757.16 1356.16) rotate(180)"/><rect class="cls-2" x="812.17" y="680.2" width="135" height="135" transform="translate(2027.16 1626.16) rotate(180)"/><rect class="cls-2" x="1352.17" y="-130.21" width="135" height="135" transform="translate(3107.15 5.35) rotate(180)"/><rect class="cls-2" x="1082.17" y="-130.03" width="135" height="135" transform="translate(2567.16 5.7) rotate(180)"/><rect class="cls-2" x="812.17" y="-130.09" width="135" height="135" transform="translate(2027.16 5.58) rotate(180)"/><rect class="cls-2" y="0.32" width="135" height="135"/><rect class="cls-2" x="135" y="135.32" width="135" height="135"/><rect class="cls-2" y="270.32" width="135" height="135"/><rect class="cls-2" x="270" y="0.26" width="135" height="135"/><rect class="cls-2" x="540" y="0.26" width="135" height="135"/><rect class="cls-2" x="405" y="135.26" width="135" height="135"/><rect class="cls-2" x="270" y="270.26" width="135" height="135"/><rect class="cls-2" x="540" y="270.26" width="135" height="135"/><rect class="cls-2" x="809.99" y="0.44" width="135" height="135"/><rect class="cls-2" x="674.99" y="135.44" width="135" height="135"/><rect class="cls-2" x="809.99" y="270.44" width="135" height="135"/><rect class="cls-2" x="542.17" y="950.14" width="135" height="135" transform="translate(1487.16 2166.04) rotate(180)"/><rect class="cls-2" x="407.17" y="815.14" width="135" height="135" transform="translate(1217.17 1896.04) rotate(180)"/><rect class="cls-2" x="542.17" y="680.02" width="135" height="135" transform="translate(1487.16 1625.81) rotate(180)"/><rect class="cls-2" x="407.17" y="544.85" width="135" height="135" transform="translate(1217.17 1355.46) rotate(180)"/><rect class="cls-2" x="542.17" y="409.85" width="135" height="135" transform="translate(1487.16 1085.46) rotate(180)"/><rect class="cls-2" x="407.17" y="274.85" width="135" height="135" transform="translate(1217.17 815.46) rotate(180)"/><rect class="cls-2" x="272.17" y="949.96" width="135" height="135" transform="translate(947.17 2165.68) rotate(180)"/><rect class="cls-2" x="2.18" y="949.96" width="135" height="135" transform="translate(407.17 2165.68) rotate(180)"/><rect class="cls-2" x="137.18" y="814.96" width="135" height="135" transform="translate(677.17 1895.69) rotate(180)"/><rect class="cls-2" x="272.17" y="679.84" width="135" height="135" transform="translate(947.17 1625.45) rotate(180)"/><rect class="cls-2" x="2.18" y="679.96" width="135" height="135" transform="translate(407.17 1625.69) rotate(180)"/><rect class="cls-2" x="-267.82" y="950.02" width="135" height="135" transform="translate(-132.82 2165.8) rotate(180)"/><rect class="cls-2" x="-132.82" y="815.02" width="135" height="135" transform="translate(137.18 1895.8) rotate(180)"/><rect class="cls-2" x="-267.82" y="679.9" width="135" height="135" transform="translate(-132.82 1625.57) rotate(180)"/><rect class="cls-2" x="137.18" y="544.67" width="135" height="135" transform="translate(677.17 1355.1) rotate(180)"/><rect class="cls-2" x="272.17" y="409.67" width="135" height="135" transform="translate(947.17 1085.11) rotate(180)"/><rect class="cls-2" x="2.18" y="409.67" width="135" height="135" transform="translate(407.17 1085.11) rotate(180)"/><rect class="cls-2" x="137.18" y="274.67" width="135" height="135" transform="translate(677.17 815.11) rotate(180)"/><rect class="cls-2" x="-132.82" y="544.73" width="135" height="135" transform="translate(137.18 1355.22) rotate(180)"/><rect class="cls-2" x="-267.82" y="409.73" width="135" height="135" transform="translate(-132.82 1085.22) rotate(180)"/><rect class="cls-2" x="-132.82" y="274.73" width="135" height="135" transform="translate(137.18 815.23) rotate(180)"/><rect class="cls-2" x="407.17" y="1085.13" width="135" height="135" transform="translate(1217.17 2436.04) rotate(180)"/><rect class="cls-2" x="137.18" y="1084.96" width="135" height="135" transform="translate(677.17 2435.68) rotate(180)"/><rect class="cls-2" x="-132.82" y="1085.02" width="135" height="135" transform="translate(137.18 2435.8) rotate(180)"/></g></g><g id="Слой_2" data-name="Слой 2"><g class="cls-1"><rect class="cls-3" x="135" y="0.32" width="135" height="135"/><rect class="cls-3" y="135.32" width="135" height="135"/><rect class="cls-3" x="135" y="270.32" width="135" height="135"/><rect class="cls-3" x="405" y="0.38" width="135" height="135"/><rect class="cls-3" x="270" y="135.26" width="135" height="135"/><rect class="cls-3" x="540" y="135.26" width="135" height="135"/><rect class="cls-3" x="405" y="270.14" width="135" height="135"/><rect class="cls-3" x="674.99" y="0.56" width="135" height="135"/><rect class="cls-3" x="809.99" y="135.44" width="135" height="135"/><rect class="cls-3" x="674.99" y="270.32" width="135" height="135"/><rect class="cls-3" x="407.17" y="950.14" width="135" height="135" transform="translate(1217.17 2166.04) rotate(180)"/><rect class="cls-3" x="542.17" y="815.25" width="135" height="135" transform="translate(1487.16 1896.28) rotate(180)"/><rect class="cls-3" x="407.17" y="680.02" width="135" height="135" transform="translate(1217.17 1625.81) rotate(180)"/><rect class="cls-3" x="542.17" y="544.73" width="135" height="135" transform="translate(1487.16 1355.22) rotate(180)"/><rect class="cls-3" x="407.17" y="409.85" width="135" height="135" transform="translate(1217.17 1085.46) rotate(180)"/><rect class="cls-3" x="542.17" y="274.96" width="135" height="135" transform="translate(1487.16 815.7) rotate(180)"/><rect class="cls-3" x="137.18" y="949.96" width="135" height="135" transform="translate(677.17 2165.68) rotate(180)"/><rect class="cls-3" x="272.17" y="815.08" width="135" height="135" transform="translate(947.17 1895.92) rotate(180)"/><rect class="cls-3" x="2.18" y="814.96" width="135" height="135" transform="translate(407.17 1895.69) rotate(180)"/><rect class="cls-3" x="137.18" y="679.84" width="135" height="135" transform="translate(677.17 1625.45) rotate(180)"/><rect class="cls-3" x="-132.82" y="950.02" width="135" height="135" transform="translate(137.18 2165.8) rotate(180)"/><rect class="cls-3" x="-267.82" y="815.14" width="135" height="135" transform="translate(-132.82 1896.04) rotate(180)"/><rect class="cls-3" x="-132.82" y="679.9" width="135" height="135" transform="translate(137.18 1625.57) rotate(180)"/><rect class="cls-3" x="272.17" y="544.55" width="135" height="135" transform="translate(947.17 1354.87) rotate(180)"/><rect class="cls-3" x="2.18" y="544.67" width="135" height="135" transform="translate(407.17 1355.1) rotate(180)"/><rect class="cls-3" x="137.18" y="409.67" width="135" height="135" transform="translate(677.17 1085.11) rotate(180)"/><rect class="cls-3" x="272.17" y="274.79" width="135" height="135" transform="translate(947.17 815.34) rotate(180)"/><rect class="cls-3" x="2.18" y="274.67" width="135" height="135" transform="translate(407.17 815.11) rotate(180)"/><rect class="cls-3" x="-267.82" y="544.61" width="135" height="135" transform="translate(-132.82 1354.99) rotate(180)"/><rect class="cls-3" x="-132.82" y="409.73" width="135" height="135" transform="translate(137.18 1085.22) rotate(180)"/><rect class="cls-3" x="-267.82" y="274.85" width="135" height="135" transform="translate(-132.82 815.46) rotate(180)"/><rect class="cls-3" x="542.17" y="1085.02" width="135" height="135" transform="translate(1487.16 2435.8) rotate(180)"/><rect class="cls-3" x="272.17" y="1084.84" width="135" height="135" transform="translate(947.17 2435.45) rotate(180)"/><rect class="cls-3" x="2.18" y="1084.96" width="135" height="135" transform="translate(407.17 2435.68) rotate(180)"/><rect class="cls-3" x="-267.82" y="1084.9" width="135" height="135" transform="translate(-132.82 2435.57) rotate(180)"/></g><g class="cls-1"><rect class="cls-3" x="1079.99" y="1216.14" width="135" height="135"/><rect class="cls-3" x="944.99" y="1081.14" width="135" height="135"/><rect class="cls-3" x="1079.99" y="946.14" width="135" height="135"/><rect class="cls-3" x="1349.99" y="1216.08" width="135" height="135"/><rect class="cls-3" x="1214.99" y="1081.2" width="135" height="135"/><rect class="cls-3" x="1484.99" y="1081.2" width="135" height="135"/><rect class="cls-3" x="1349.99" y="946.32" width="135" height="135"/><rect class="cls-3" x="1619.99" y="1215.9" width="135" height="135"/><rect class="cls-3" x="1754.99" y="1081.02" width="135" height="135"/><rect class="cls-3" x="1619.99" y="946.14" width="135" height="135"/><rect class="cls-3" x="1352.17" y="4.79" width="135" height="135" transform="translate(3107.15 275.35) rotate(180)"/><rect class="cls-3" x="1487.16" y="139.67" width="135" height="135" transform="translate(3377.15 545.11) rotate(180)"/><rect class="cls-3" x="1352.17" y="274.91" width="135" height="135" transform="translate(3107.15 815.58) rotate(180)"/><rect class="cls-3" x="1487.16" y="410.2" width="135" height="135" transform="translate(3377.15 1086.16) rotate(180)"/><rect class="cls-3" x="1352.17" y="545.08" width="135" height="135" transform="translate(3107.15 1355.93) rotate(180)"/><rect class="cls-3" x="1487.16" y="679.96" width="135" height="135" transform="translate(3377.15 1625.69) rotate(180)"/><rect class="cls-3" x="1082.17" y="4.97" width="135" height="135" transform="translate(2567.16 275.7) rotate(180)"/><rect class="cls-3" x="1217.17" y="139.85" width="135" height="135" transform="translate(2837.15 545.46) rotate(180)"/><rect class="cls-3" x="947.17" y="139.97" width="135" height="135" transform="translate(2297.16 545.7) rotate(180)"/><rect class="cls-3" x="1082.17" y="275.08" width="135" height="135" transform="translate(2567.16 815.93) rotate(180)"/><rect class="cls-3" x="812.17" y="4.91" width="135" height="135" transform="translate(2027.16 275.58) rotate(180)"/><rect class="cls-3" x="677.17" y="139.79" width="135" height="135" transform="translate(1757.16 545.35) rotate(180)"/><rect class="cls-3" x="812.17" y="275.02" width="135" height="135" transform="translate(2027.16 815.81) rotate(180)"/><rect class="cls-3" x="1217.17" y="410.38" width="135" height="135" transform="translate(2837.15 1086.52) rotate(180)"/><rect class="cls-3" x="947.17" y="410.26" width="135" height="135" transform="translate(2297.16 1086.28) rotate(180)"/><rect class="cls-3" x="1082.17" y="545.26" width="135" height="135" transform="translate(2567.16 1356.28) rotate(180)"/><rect class="cls-3" x="1217.17" y="680.14" width="135" height="135" transform="translate(2837.15 1626.04) rotate(180)"/><rect class="cls-3" x="947.17" y="680.26" width="135" height="135" transform="translate(2297.16 1626.28) rotate(180)"/><rect class="cls-3" x="677.17" y="410.32" width="135" height="135" transform="translate(1757.16 1086.4) rotate(180)"/><rect class="cls-3" x="812.17" y="545.2" width="135" height="135" transform="translate(2027.16 1356.16) rotate(180)"/><rect class="cls-3" x="677.17" y="680.08" width="135" height="135" transform="translate(1757.16 1625.92) rotate(180)"/><rect class="cls-3" x="1487.16" y="-130.09" width="135" height="135" transform="translate(3377.15 5.58) rotate(180)"/><rect class="cls-3" x="1217.17" y="-129.91" width="135" height="135" transform="translate(2837.15 5.94) rotate(180)"/><rect class="cls-3" x="947.17" y="-130.03" width="135" height="135" transform="translate(2297.16 5.7) rotate(180)"/><rect class="cls-3" x="677.17" y="-129.97" width="135" height="135" transform="translate(1757.16 5.82) rotate(180)"/></g><g class="cls-1"><rect class="cls-3" x="2024.98" y="0.06" width="135" height="135"/><rect class="cls-3" x="1889.98" y="135.06" width="135" height="135"/><rect class="cls-3" x="2024.98" y="270.06" width="135" height="135"/><rect class="cls-3" x="2294.98" y="0.12" width="135" height="135"/><rect class="cls-3" x="2159.98" y="135" width="135" height="135"/><rect class="cls-3" x="2429.98" y="135" width="135" height="135"/><rect class="cls-3" x="2294.98" y="269.88" width="135" height="135"/><rect class="cls-3" x="2564.98" y="0.29" width="135" height="135"/><rect class="cls-3" x="2699.98" y="135.18" width="135" height="135"/><rect class="cls-3" x="2564.98" y="270.06" width="135" height="135"/><rect class="cls-3" x="2297.16" y="949.87" width="135" height="135" transform="translate(4997.14 2165.51) rotate(180)"/><rect class="cls-3" x="2432.16" y="814.99" width="135" height="135" transform="translate(5267.13 1895.75) rotate(180)"/><rect class="cls-3" x="2297.16" y="679.76" width="135" height="135" transform="translate(4997.14 1625.28) rotate(180)"/><rect class="cls-3" x="2432.16" y="544.46" width="135" height="135" transform="translate(5267.13 1354.69) rotate(180)"/><rect class="cls-3" x="2297.16" y="409.58" width="135" height="135" transform="translate(4997.14 1084.93) rotate(180)"/><rect class="cls-3" x="2432.16" y="274.7" width="135" height="135" transform="translate(5267.13 815.17) rotate(180)"/><rect class="cls-3" x="2027.16" y="949.69" width="135" height="135" transform="translate(4457.14 2165.16) rotate(180)"/><rect class="cls-3" x="2162.16" y="814.81" width="135" height="135" transform="translate(4727.14 1895.39) rotate(180)"/><rect class="cls-3" x="1892.16" y="814.7" width="135" height="135" transform="translate(4187.14 1895.16) rotate(180)"/><rect class="cls-3" x="2027.16" y="679.58" width="135" height="135" transform="translate(4457.14 1624.92) rotate(180)"/><rect class="cls-3" x="1757.16" y="949.75" width="135" height="135" transform="translate(3917.14 2165.27) rotate(180)"/><rect class="cls-3" x="1622.16" y="814.87" width="135" height="135" transform="translate(3647.15 1895.51) rotate(180)"/><rect class="cls-3" x="1757.16" y="679.64" width="135" height="135" transform="translate(3917.14 1625.04) rotate(180)"/><rect class="cls-3" x="2162.16" y="544.29" width="135" height="135" transform="translate(4727.14 1354.34) rotate(180)"/><rect class="cls-3" x="1892.16" y="544.4" width="135" height="135" transform="translate(4187.14 1354.57) rotate(180)"/><rect class="cls-3" x="2027.16" y="409.4" width="135" height="135" transform="translate(4457.14 1084.58) rotate(180)"/><rect class="cls-3" x="2162.16" y="274.52" width="135" height="135" transform="translate(4727.14 814.81) rotate(180)"/><rect class="cls-3" x="1892.16" y="274.41" width="135" height="135" transform="translate(4187.14 814.58) rotate(180)"/><rect class="cls-3" x="1622.16" y="544.35" width="135" height="135" transform="translate(3647.15 1354.46) rotate(180)"/><rect class="cls-3" x="1757.16" y="409.46" width="135" height="135" transform="translate(3917.14 1084.69) rotate(180)"/><rect class="cls-3" x="1622.16" y="274.58" width="135" height="135" transform="translate(3647.15 814.93) rotate(180)"/><rect class="cls-3" x="2432.16" y="1084.75" width="135" height="135" transform="translate(5267.13 2435.27) rotate(180)"/><rect class="cls-3" x="2162.16" y="1084.58" width="135" height="135" transform="translate(4727.14 2434.92) rotate(180)"/><rect class="cls-3" x="1892.16" y="1084.69" width="135" height="135" transform="translate(4187.14 2435.15) rotate(180)"/><rect class="cls-3" x="1622.16" y="1084.63" width="135" height="135" transform="translate(3647.15 2435.04) rotate(180)"/></g></g><g id="Слой_3" data-name="Слой 3"><rect class="cls-4" width="2834.98" height="1351.2"/></g></svg>