<svg xmlns="http://www.w3.org/2000/svg" viewBox="0 0 732.6 565.43"><defs><style>.cls-1{fill:#e0e0e0;}.cls-2{fill:#d1d0d1;}.cls-3{fill:#f4f4f4;}.cls-4{fill:#efefef;}.cls-5{fill:#a07070;}.cls-6{fill:#ddd7ba;}.cls-7{fill:#1d1d1b;}</style></defs><g id="Слой_15" data-name="Слой 15"><path class="cls-1" d="M594.15,814.27c-4.41-27.16-44-56.4-71.54-108.68s-49.53-136.21-27.52-191.24,55-99.12,0-101.81c-34.4-1.68-5.5-28.89-5.5-28.89s-5.51-28.89,20.63-39.9,78.42-22,112.82,97.68,41.16,97.68,52.22,108.69,73,78.42,89.49,104.56S905.08,863.8,949.1,873.43,891.32,923,861.05,889.94,767.5,793.64,738.61,784s-64.67,2.29-74.3,2.29-23.39,39-45.4,37.6S595.21,820.83,594.15,814.27Z" transform="translate(-227.38 -337.36)"/><path class="cls-2" d="M507.38,671.31l-.17,0a316.21,316.21,0,0,0,15.31,34.09c27.51,52.28,67.13,81.52,71.54,108.68,1.06,6.56,2.75,8.26,24.76,9.63,15.26,1,26.55-17.47,35.25-28.87l-.35-.46C630.17,760.92,618.15,771.39,507.38,671.31Z" transform="translate(-227.38 -337.36)"/><path class="cls-1" d="M507.21,671.29c95.19,112.72,123,89.81,146.6,123.28s77.85-12.46,77.85-12.46S564.74,700.28,507.21,671.29Z" transform="translate(-227.38 -337.36)"/><g id="Слой_16" data-name="Слой 16"><path class="cls-3" d="M596.06,471.53c8.39,9.22-21.63,90.2-50.07,231.51-2.63,13.07-303.58-54.69-316.68-62.06s44.21-221.85,59.76-223.48S579.69,453.52,596.06,471.53Z" transform="translate(-227.38 -337.36)"/><path class="cls-4" d="M596,471.44C558,527.19,423.24,573,394.58,567.25s-115.09-136-106.9-149.13S558.81,435.1,596,471.44Z" transform="translate(-227.38 -337.36)"/><path class="cls-5" d="M596,819.06c-34.38,28.69-38.05,31.44-77,33.28-9.22.43,0,11.92,0,11.92l54.11-6.88,41.73,2.3s5.05-7.8,0-9.64-36,1.84-34.14-3.21,38.18-23.14,38.18-23.14Z" transform="translate(-227.38 -337.36)"/><path class="cls-5" d="M676.69,830.53c-10.08,22.82-12.86,35.11-58.67,34.19-9.23-.18-4.92,10.53-4.92,10.53l50.36-6.4,35.27,6.88c-.54,1.92,10.25-2.5,7.08-11-1.88-5-29.51,0-27.67-5S691,832.56,691,832.56Z" transform="translate(-227.38 -337.36)"/><path class="cls-5" d="M578.31,855.12c-18.57,9.93-30.51,19.94-33.6,21.83-7.5-3.53-9.5-6.36-2.54-10.56s26.3-15.47,26.3-15.47Z" transform="translate(-227.38 -337.36)"/><path class="cls-5" d="M674.28,867.35c-18.57,9.94-30.51,19.94-33.6,21.83-7.5-3.53-9.5-6.36-2.54-10.56s26.3-15.46,26.3-15.46Z" transform="translate(-227.38 -337.36)"/></g><path class="cls-6" d="M489.59,383.65c-34.4,34.39-49.53,57.78-49.53,57.78l55-28.89Z" transform="translate(-227.38 -337.36)"/><circle class="cls-7" cx="326.38" cy="46.29" r="13.76"/><path class="cls-1" d="M641.84,765.2c23.85,56.87,25.68,75.21,55,66.42,13.29-4,42.23-44.4,33.06-66.42S641.84,765.2,641.84,765.2Z" transform="translate(-227.38 -337.36)"/></g></svg>