<svg id="Слой_19" data-name="Слой 19" xmlns="http://www.w3.org/2000/svg" viewBox="0 0 60.54 63.09"><defs><style>.cls-1{fill:#e4f3f6;stroke:#accee1;}.cls-1,.cls-3{stroke-linecap:round;stroke-linejoin:round;}.cls-2{fill:#504f4e;}.cls-3{fill:#fcce9e;stroke:#f7ad7d;}</style></defs><path class="cls-1" d="M12.8,39.09c-3-4.11-5.62-11.35-2.58-16.22S21.4,18.4,24.66,20.92s3.61,6.76-1.37,9.06c-3.2,1.47-1.78,6.68-.35,10.24A2.74,2.74,0,0,1,20.14,44,8.73,8.73,0,0,1,12.8,39.09Z"/><path class="cls-1" d="M3,33.51c-.67,1,1.49,2.06,2.47,2.06S8.83,34.14,7,33A2.89,2.89,0,0,0,3,33.51Z"/><circle class="cls-2" cx="17.98" cy="26.22" r="1.03"/><circle class="cls-2" cx="22.43" cy="25.34" r="1.03"/><path class="cls-1" d="M28.8,33.42c-.38-.58-2.22-.14-2.9.62-1.54,1.7.79,2.41,2,2.11A1.82,1.82,0,0,0,28.8,33.42Z"/><path class="cls-3" d="M39.5,40.78c-1.89-.66-4.45-2.68-3.68-7.12s4-7.85,9.92-7.14S55.51,33,52,40.31C50.58,43.21,42.54,41.84,39.5,40.78Z"/><path class="cls-3" d="M54.14,25.15c.58-.82,2.5-.68,3.29.46a1.43,1.43,0,0,1-1.35,2.19C55.15,27.66,52.91,26.85,54.14,25.15Z"/><circle class="cls-2" cx="43.91" cy="34.17" r="1.03"/><circle class="cls-2" cx="39.18" cy="33.37" r="1.03"/><path class="cls-3" d="M35.62,23.91c-.07-.6-1.93-1-2.75-.68a1.39,1.39,0,0,0-.68,2.11,3.19,3.19,0,0,0,1.54.91A2.23,2.23,0,0,0,35.62,23.91Z"/><polygon class="cls-1" points="36.68 29.79 53.2 31.8 52.28 29.88 38.07 28.27 36.68 29.79"/><polygon class="cls-3" points="26.38 21.6 8.94 23.65 10.19 21.69 24.58 20.12 26.38 21.6"/></svg>