<svg id="Слой_19" data-name="Слой 19" xmlns="http://www.w3.org/2000/svg" viewBox="0 0 60.54 63.09"><defs><style>.cls-1{fill:#e4f3f6;stroke:#accee1;}.cls-1,.cls-3,.cls-4{stroke-linecap:round;stroke-linejoin:round;}.cls-2{fill:#504f4e;}.cls-3{fill:#fcce9e;stroke:#f7ad7d;}.cls-4{fill:#ffefc4;stroke:#f5e299;}</style></defs><path class="cls-1" d="M8.74,39.09C5.79,35,3.12,27.74,6.16,22.87S17.34,18.4,20.6,20.92s3.61,6.76-1.37,9.06c-3.2,1.47-1.78,6.68-.35,10.24A2.74,2.74,0,0,1,16.08,44,8.73,8.73,0,0,1,8.74,39.09Z"/><path class="cls-1" d="M2.54,40C1.86,41,4,42.05,5,42.05s3.38-1.44,1.55-2.58A2.88,2.88,0,0,0,2.54,40Z"/><circle class="cls-2" cx="13.05" cy="25.66" r="1.03"/><circle class="cls-2" cx="18.47" cy="24.47" r="1.03"/><path class="cls-1" d="M28.63,25.93c-.38-.58-2.22-.14-2.9.62-1.54,1.7.79,2.41,2,2.11A1.83,1.83,0,0,0,28.63,25.93Z"/><path class="cls-3" d="M44.3,37.92c-1.89-.66-4.44-2.68-3.68-7.12s4-7.85,9.92-7.14,9.77,6.52,6.24,13.79C55.38,40.35,47.34,39,44.3,37.92Z"/><circle class="cls-2" cx="48.71" cy="31.31" r="1.03"/><circle class="cls-2" cx="43.98" cy="30.34" r="1.03"/><path class="cls-3" d="M36.1,32.13c-.07-.6-1.93-1-2.75-.69a1.39,1.39,0,0,0-.68,2.12,3.27,3.27,0,0,0,1.54.91A2.25,2.25,0,0,0,36.1,32.13Z"/><polygon class="cls-4" points="32.61 27.9 32.09 25.45 34.54 24.93 34.01 22.43 31.56 22.95 31.04 20.5 28.53 21.03 29.05 23.48 26.6 24 27.14 26.51 29.58 25.99 30.1 28.43 32.61 27.9"/><rect class="cls-4" x="26.2" y="33.19" width="7.57" height="2.56" transform="translate(-9.22 11.02) rotate(-18.1)"/><rect class="cls-4" x="28.62" y="37.91" width="7.57" height="2.56" transform="translate(75.38 66.37) rotate(161.9)"/><path class="cls-3" d="M35.24,37.8c.58-.81,2.5-.68,3.29.47a1.43,1.43,0,0,1-1.34,2.19C36.26,40.31,34,39.51,35.24,37.8Z"/></svg>