<svg id="Слой_5" data-name="Слой 5" xmlns="http://www.w3.org/2000/svg" xmlns:xlink="http://www.w3.org/1999/xlink" viewBox="0 0 1012.17 1181.83"><defs><style>.cls-1{fill:none;}.cls-2{clip-path:url(#clip-path);}.cls-3{fill:#f7a849;}.cls-4{fill:#ec8a47;}.cls-5{fill:#f7ac50;}.cls-6{fill:#d84654;}.cls-7{fill:#c23c4c;}.cls-8{fill:#f7b89f;}.cls-9{fill:#fddec4;}.cls-10{fill:#e5a17c;}.cls-11{fill:#581d10;}.cls-12{fill:#fff;}.cls-13{fill:#f6aa74;}.cls-14{fill:#f5a88d;}</style><clipPath id="clip-path" transform="translate(6.75 85.88)"><path class="cls-1" d="M936.4,735.82C779.6,927.08,557.88,982.15,330.64,988.9,22.35,998.06,77.17,783,89.85,504.22,100.18,277.11,103.3,32.4,330.64,32.4S1152.44,472.31,936.4,735.82Z"/></clipPath></defs><g class="cls-2"><rect class="cls-3" x="6.75" y="85.88" width="1005.42" height="915.85"/><rect class="cls-4" y="0.22" width="168.7" height="168.7"/><rect class="cls-4" x="337.39" y="0.15" width="168.7" height="168.7"/><rect class="cls-4" x="674.78" y="0.15" width="168.7" height="168.7"/><rect class="cls-4" x="836.72" y="758.56" width="168.7" height="168.7" transform="translate(1848.9 1771.69) rotate(180)"/><rect class="cls-4" x="836.72" y="420.8" width="168.7" height="168.7" transform="translate(1848.9 1096.17) rotate(180)"/><rect class="cls-4" x="836.72" y="83.41" width="168.7" height="168.7" transform="translate(1848.9 421.39) rotate(180)"/><rect class="cls-4" x="668.03" y="927.03" width="168.7" height="168.7" transform="translate(1511.51 2108.64) rotate(180)"/><rect class="cls-4" x="330.64" y="927.03" width="168.7" height="168.7" transform="translate(836.72 2108.64) rotate(180)"/><rect class="cls-4" x="499.33" y="758.34" width="168.7" height="168.7" transform="translate(1174.12 1771.25) rotate(180)"/><rect class="cls-4" x="668.03" y="589.5" width="168.7" height="168.7" transform="translate(1511.51 1433.56) rotate(180)"/><rect class="cls-4" x="330.64" y="589.64" width="168.7" height="168.7" transform="translate(836.72 1433.86) rotate(180)"/><rect class="cls-4" x="-6.75" y="927.11" width="168.7" height="168.7" transform="translate(161.94 2108.79) rotate(180)"/><rect class="cls-4" x="161.94" y="758.41" width="168.7" height="168.7" transform="translate(499.33 1771.4) rotate(180)"/><rect class="cls-4" x="-6.75" y="589.57" width="168.7" height="168.7" transform="translate(161.94 1433.71) rotate(180)"/><rect class="cls-4" x="499.33" y="420.58" width="168.7" height="168.7" transform="translate(1174.12 1095.73) rotate(180)"/><rect class="cls-4" x="668.03" y="251.88" width="168.7" height="168.7" transform="translate(1511.51 758.34) rotate(180)"/><rect class="cls-4" x="330.64" y="251.88" width="168.7" height="168.7" transform="translate(836.72 758.34) rotate(180)"/><rect class="cls-4" x="499.33" y="83.19" width="168.7" height="168.7" transform="translate(1174.12 420.95) rotate(180)"/><rect class="cls-4" x="161.94" y="420.65" width="168.7" height="168.7" transform="translate(499.33 1095.88) rotate(180)"/><rect class="cls-4" x="-6.75" y="251.96" width="168.7" height="168.7" transform="translate(161.94 758.49) rotate(180)"/><rect class="cls-4" x="161.94" y="83.26" width="168.7" height="168.7" transform="translate(499.33 421.09) rotate(180)"/><rect class="cls-5" x="168.7" y="0.22" width="168.7" height="168.7"/><rect class="cls-5" x="506.09" width="168.7" height="168.7"/><rect class="cls-5" x="843.48" y="0.22" width="168.7" height="168.7"/><rect class="cls-5" x="836.72" y="927.25" width="168.7" height="168.7" transform="translate(1848.9 2109.08) rotate(180)"/><rect class="cls-5" x="836.72" y="589.72" width="168.7" height="168.7" transform="translate(1848.9 1434) rotate(180)"/><rect class="cls-5" x="836.72" y="252.1" width="168.7" height="168.7" transform="translate(1848.9 758.78) rotate(180)"/><rect class="cls-5" x="499.33" y="927.03" width="168.7" height="168.7" transform="translate(1174.12 2108.64) rotate(180)"/><rect class="cls-5" x="668.03" y="758.49" width="168.7" height="168.7" transform="translate(1511.51 1771.54) rotate(180)"/><rect class="cls-5" x="330.64" y="758.34" width="168.7" height="168.7" transform="translate(836.72 1771.25) rotate(180)"/><rect class="cls-5" x="499.33" y="589.5" width="168.7" height="168.7" transform="translate(1174.12 1433.56) rotate(180)"/><rect class="cls-5" x="161.94" y="927.11" width="168.7" height="168.7" transform="translate(499.33 2108.79) rotate(180)"/><rect class="cls-5" x="-6.75" y="758.56" width="168.7" height="168.7" transform="translate(161.94 1771.69) rotate(180)"/><rect class="cls-5" x="161.94" y="589.57" width="168.7" height="168.7" transform="translate(499.33 1433.71) rotate(180)"/><rect class="cls-5" x="668.03" y="420.43" width="168.7" height="168.7" transform="translate(1511.51 1095.44) rotate(180)"/><rect class="cls-5" x="330.64" y="420.58" width="168.7" height="168.7" transform="translate(836.72 1095.73) rotate(180)"/><rect class="cls-5" x="499.33" y="251.88" width="168.7" height="168.7" transform="translate(1174.12 758.34) rotate(180)"/><rect class="cls-5" x="668.03" y="83.34" width="168.7" height="168.7" transform="translate(1511.51 421.24) rotate(180)"/><rect class="cls-5" x="330.64" y="83.19" width="168.7" height="168.7" transform="translate(836.72 420.95) rotate(180)"/><rect class="cls-5" x="-6.75" y="420.51" width="168.7" height="168.7" transform="translate(161.94 1095.58) rotate(180)"/><rect class="cls-5" x="161.94" y="251.96" width="168.7" height="168.7" transform="translate(499.33 758.49) rotate(180)"/><rect class="cls-5" x="-6.75" y="83.41" width="168.7" height="168.7" transform="translate(161.94 421.39) rotate(180)"/><circle class="cls-5" cx="927.83" cy="928.78" r="75.89"/><circle class="cls-5" cx="927.83" cy="591.02" r="75.89"/><circle class="cls-5" cx="927.83" cy="253.63" r="75.89"/><circle class="cls-5" cx="759.13" cy="1097.26" r="75.89"/><circle class="cls-5" cx="421.74" cy="1097.26" r="75.89"/><circle class="cls-5" cx="590.44" cy="928.56" r="75.89"/><circle class="cls-5" cx="759.13" cy="759.72" r="75.89"/><circle class="cls-5" cx="421.74" cy="759.87" r="75.89"/><circle class="cls-5" cx="84.35" cy="1097.33" r="75.89"/><circle class="cls-5" cx="84.35" cy="759.79" r="75.89"/><circle class="cls-5" cx="253.04" cy="928.64" r="75.89"/><circle class="cls-5" cx="590.44" cy="590.8" r="75.89"/><circle class="cls-5" cx="759.13" cy="422.11" r="75.89"/><circle class="cls-5" cx="421.74" cy="422.11" r="75.89"/><circle class="cls-5" cx="590.44" cy="253.41" r="75.89"/><circle class="cls-5" cx="253.04" cy="590.88" r="75.89"/><circle class="cls-5" cx="84.35" cy="422.18" r="75.89"/><circle class="cls-5" cx="253.04" cy="253.48" r="75.89"/><circle class="cls-4" cx="254.05" cy="83.23" r="75.89"/><circle class="cls-4" cx="928.83" cy="83.16" r="75.89"/><circle class="cls-4" cx="591.44" cy="83.16" r="75.89"/><circle class="cls-4" cx="928.83" cy="1095.92" r="75.89"/><circle class="cls-4" cx="591.44" cy="1095.92" r="75.89"/><circle class="cls-4" cx="760.13" cy="927.22" r="75.89"/><circle class="cls-4" cx="928.83" cy="758.38" r="75.89"/><circle class="cls-4" cx="591.44" cy="758.53" r="75.89"/><circle class="cls-4" cx="254.05" cy="1095.99" r="75.89"/><circle class="cls-4" cx="85.35" cy="927.3" r="75.89"/><circle class="cls-4" cx="254.05" cy="758.45" r="75.89"/><circle class="cls-4" cx="422.74" cy="927.3" r="75.89"/><circle class="cls-4" cx="760.13" cy="589.46" r="75.89"/><circle class="cls-4" cx="928.83" cy="420.77" r="75.89"/><circle class="cls-4" cx="591.44" cy="420.77" r="75.89"/><circle class="cls-4" cx="760.13" cy="252.07" r="75.89"/><circle class="cls-4" cx="422.74" cy="589.54" r="75.89"/><circle class="cls-4" cx="85.35" cy="589.54" r="75.89"/><circle class="cls-4" cx="254.05" cy="420.84" r="75.89"/><circle class="cls-4" cx="85.35" cy="252.15" r="75.89"/><circle class="cls-4" cx="422.74" cy="252.15" r="75.89"/></g><path class="cls-6" d="M878.42,600.92C860.14,602,844,611.68,818.2,573S713,397.56,601,481C508.26,550.17,532.19,789.09,552.62,816S684.33,986.4,709.06,997.15,878.42,600.92,878.42,600.92Z" transform="translate(6.75 85.88)"/><path class="cls-7" d="M721,773.41c3.92-3.23,229.76-339.2,273-318.31,16.53,8,13.29,39.2-3.48,77.55-67.74,154.83-245.89,484.78-279.83,482.78-27.42-1.61-110.22-115-187.52-224.73C498.75,756.07,721,773.41,721,773.41Z" transform="translate(6.75 85.88)"/><rect class="cls-7" x="513.91" y="773.41" width="207.08" height="35.04" rx="7.26" transform="translate(1241.65 1667.73) rotate(180)"/><path class="cls-8" d="M265.68,697c3.64,36.32,25.2,83.12,33.12,93.34S486,917.92,548.9,891.65c69.64-29.07,139.32-168.71,133.79-220.33-5.36-49.94-2.93-115.23-18.05-164.26s-9.24-165.31-59.82-216.47S423.61,192.5,366.3,213.08s-210,71.39-158.79,314.5C225.72,614,265.68,697,265.68,697Z" transform="translate(6.75 85.88)"/><path class="cls-8" d="M272.72,602c.17,2.38,13.7,107.13-22.1,83.47S181,547.23,192.25,536.84s26.7-22.76,42.54-2.32S272.72,602,272.72,602Z" transform="translate(6.75 85.88)"/><path class="cls-9" d="M189.23,502.45c12.25,55.16,42.64,41.29,60.05,78.25,5.47,11.6,11.3,75.82,12,80.68,1.06,7.89,32.61-25.3,30.54-38.76-5.59-36.34-31.17-117.14-17.49-134.26,20.12-25.18-6.37-171.44,32-171.77,21.47-.19,118.3,4.61,166-14.65S583,263,617.82,324.76,657,501.68,665.29,509.23c5.13,4.7,39.5-58.43,19-118.43S622.64,182.91,492.58,182.45s-187.72,3.15-250,70.17S170.92,420,189.23,502.45Z" transform="translate(6.75 85.88)"/><path class="cls-10" d="M608.92,636s14.52,13.49,15.29,20.81S614.1,667.22,608.92,636Z" transform="translate(6.75 85.88)"/><path class="cls-10" d="M422.83,711.76s34.39-51,43.36-57.15C454.66,700.47,425.17,752.07,422.83,711.76Z" transform="translate(6.75 85.88)"/><path class="cls-9" d="M262.08,692.67c14.77,82.38,36.38,108.27,69.06,131.72,52.74,37.84,159.68,87.76,210.36,72.1s122.2-69.26,137.29-160.2,2.59-125.26-.45-123.36S670.7,731.66,620,755.57s-88,34.88-117.13,31.6c-28.34-3.19-147.53-6.37-185-81.92S300.66,624,285.14,611.06,254.4,649.84,262.08,692.67Z" transform="translate(6.75 85.88)"/><path class="cls-9" d="M420.93,781c-12.83-30.27,10.82-75.85,17.14-81.85,13.27-12.57,24.7-23.32,62.66-24.76s99-27.75,119.32-19.62c24.59,9.83,32.73,44.85,35.49,64.06,4.54,31.6-53.53,51.58-50.33,47.22,29.51-40.1,15.38-71-.14-77.54-17.52-7.38-71,11.66-98.09,14.33-44.68,4.4-57.11,13.27-52.58,52.27,2.47,21.31,12.35,28.51,21.49,34.06S431.61,806.2,420.93,781Z" transform="translate(6.75 85.88)"/><path class="cls-11" d="M474.38,721.84c-12.79,2,45.63,18.95,66.69,14.4,43.87-9.47,60-40.21,54.25-38.33C530.6,719.13,483.37,720.43,474.38,721.84Z" transform="translate(6.75 85.88)"/><path class="cls-12" d="M498.73,718.68s-1.94,12,35.49,5.47c43.11-7.51,43-12.38,47.51-20.95S575.1,707.43,498.73,718.68Z" transform="translate(6.75 85.88)"/><path class="cls-13" d="M490.17,720.27s69.91-6.33,105.15-22.36C567.84,694.54,496.47,715.25,490.17,720.27Z" transform="translate(6.75 85.88)"/><path class="cls-14" d="M544.48,531.27s20.87,71.4,30.61,72.17c11.27.89,32.68,10.39,25,29-1.76,4.29-7.33,4.88-10.23,9.75-7.6,12.79-14.81,30.69-31.84,33.66-24.66,4.3-43.21-15.06-46.62-18.06s-25.85,2.46-29.12-4.66c-10.08-21.95,1.58-20.76,10.67-33.53s17.4-42.89,16.6-48.12S544.48,531.27,544.48,531.27Z" transform="translate(6.75 85.88)"/><ellipse class="cls-8" cx="561.09" cy="629.09" rx="11.54" ry="16.43" transform="translate(-118.38 225.4) rotate(-12.77)"/><path class="cls-9" d="M357.41,521.55c-1.08-3.31,21.95-27.31,34.55-31.43s58.11-8.48,68.71-11,9.95,14.13-8,17.26c-3.45.6-52.17,4.48-58.31,7.41S358.49,524.86,357.41,521.55Z" transform="translate(6.75 85.88)"/><path class="cls-9" d="M583.07,489.37c-14.87,2.53-20.45-12.51-8.9-14.63,8.2-1.5,52.74-11.71,66.93-.5,2.52,2,10.94,16.67,8.46,17.48s-8.34-9.63-27-9.86C614.71,481.77,612.7,484.32,583.07,489.37Z" transform="translate(6.75 85.88)"/><path class="cls-11" d="M392.76,559.32c1.37-10.52,23.2-51.26,69.49-22.73C421.88,526.15,410.27,543.52,392.76,559.32Z" transform="translate(6.75 85.88)"/><path class="cls-11" d="M579.05,524.47c8-25,39.48-32.52,56-9.26C607.88,493.91,579.05,524.47,579.05,524.47Z" transform="translate(6.75 85.88)"/><circle class="cls-11" cx="606.68" cy="607.66" r="12.84"/><circle class="cls-11" cx="428.11" cy="635" r="14.21"/></svg>