<svg id="Слой_19" data-name="Слой 19" xmlns="http://www.w3.org/2000/svg" viewBox="0 0 60.54 63.09"><defs><style>.cls-1{fill:#e4f3f6;stroke:#accee1;}.cls-1,.cls-3,.cls-4{stroke-linecap:round;stroke-linejoin:round;}.cls-2{fill:#504f4e;}.cls-3{fill:#fcce9e;stroke:#f7ad7d;}.cls-4{fill:#ffefc4;stroke:#f5e299;}</style></defs><path class="cls-1" d="M34.67,34.88c-3-4.11-5.62-11.35-2.58-16.22s11.18-4.47,14.44-1.95,3.61,6.76-1.37,9.06C42,27.23,43.38,32.45,44.81,36A2.74,2.74,0,0,1,42,39.77,8.75,8.75,0,0,1,34.67,34.88Z"/><circle class="cls-2" cx="39.85" cy="21.5" r="1.03"/><circle class="cls-2" cx="44.76" cy="19.95" r="1.03"/><path class="cls-1" d="M55.74,24.54c-.38-.59-2.22-.15-2.9.61-1.54,1.71.79,2.41,2,2.12A1.83,1.83,0,0,0,55.74,24.54Z"/><path class="cls-3" d="M22.2,36.81c1.89-.65,4.45-2.68,3.68-7.11s-4-7.86-9.91-7.14S6.19,29.07,9.72,36.34C11.13,39.24,19.16,37.87,22.2,36.81Z"/><path class="cls-3" d="M25.12,38.71c.58-.81,2.49-.68,3.28.46a1.43,1.43,0,0,1-1.34,2.2C26.13,41.22,23.89,40.42,25.12,38.71Z"/><circle class="cls-2" cx="21.96" cy="31.14" r="1.03"/><circle class="cls-2" cx="16.57" cy="31.47" r="1.03"/><path class="cls-4" d="M43.32,22.24c-.46,7-1.49,13-1.49,13l8,.48L52.21,32,55,19l-5.22,3.9Z"/><path class="cls-4" d="M18.19,33.05c-2.09,6.69-4.52,12.33-4.52,12.33l7.7,2.35,3.16-3.08,5.73-12-6,2.56Z"/><path class="cls-1" d="M40,30.65c-.68,1,1.49,2.06,2.46,2.06s3.38-1.43,1.55-2.58A2.87,2.87,0,0,0,40,30.65Z"/><path class="cls-3" d="M15.26,41c-.07-.59-1.92-1-2.75-.68a1.39,1.39,0,0,0-.67,2.12,3.15,3.15,0,0,0,1.54.9A2.23,2.23,0,0,0,15.26,41Z"/></svg>