<svg id="Слой_19" data-name="Слой 19" xmlns="http://www.w3.org/2000/svg" viewBox="0 0 60.54 63.09"><defs><style>.cls-1{fill:#fcce9e;stroke:#f7ad7d;}.cls-1,.cls-3,.cls-4{stroke-linecap:round;stroke-linejoin:round;}.cls-2{fill:#504f4e;}.cls-3{fill:#e4f3f6;stroke:#accee1;}.cls-4{fill:#ffefc4;stroke:#f5e299;}</style></defs><path class="cls-1" d="M21.56,39.24c1.9-.66,4.45-2.69,3.68-7.12s-4-7.86-9.91-7.14S5.55,31.49,9.08,38.76C10.49,41.66,18.52,40.3,21.56,39.24Z"/><path class="cls-1" d="M29.65,26.62c.58-.81,2.5-.68,3.29.46a1.44,1.44,0,0,1-1.34,2.2C30.67,29.13,28.43,28.33,29.65,26.62Z"/><circle class="cls-2" cx="21.06" cy="30.79" r="1.03"/><circle class="cls-2" cx="15.67" cy="31.83" r="1.03"/><path class="cls-1" d="M6.82,39.57c-.08-.6-1.93-1-2.76-.68A1.38,1.38,0,0,0,3.39,41a3.1,3.1,0,0,0,1.54.91A2.23,2.23,0,0,0,6.82,39.57Z"/><path class="cls-3" d="M51.9,41.19c3-4.11,5.61-11.35,2.58-16.22S43.3,20.5,40,23s-3.61,6.77,1.38,9.06c3.19,1.47,1.78,6.68.35,10.24a2.75,2.75,0,0,0,2.79,3.77A8.77,8.77,0,0,0,51.9,41.19Z"/><path class="cls-3" d="M30.23,25.61c-.68,1,1.49,2.06,2.46,2.06s3.39-1.43,1.55-2.58A2.89,2.89,0,0,0,30.23,25.61Z"/><circle class="cls-2" cx="42" cy="25.78" r="1.03"/><circle class="cls-2" cx="46.71" cy="26.82" r="1.03"/><path class="cls-3" d="M57.08,41.46c-.38-.58-2.22-.14-2.9.62-1.53,1.7.79,2.41,2,2.11A1.82,1.82,0,0,0,57.08,41.46Z"/><path class="cls-4" d="M31.09,20.38C34,17.28,36.91,21,33,22.1c3.15,1.4.11,3.53-1.35,2.21-.42,1.52-3.81,1.43-2-1.67C26.56,23.1,26.79,17.77,31.09,20.38Z"/></svg>