<svg id="Слой_9" data-name="Слой 9" xmlns="http://www.w3.org/2000/svg" viewBox="0 0 386.13 438.7"><defs><style>.cls-1{fill:#f4eeea;}.cls-2{fill:#232c58;}.cls-3{fill:#1a844c;}.cls-4{fill:#ee732d;}.cls-5{fill:#eec51a;}.cls-6{fill:#cc5a33;}.cls-7{fill:#d3a6b2;}.cls-8{fill:#2d3030;}.cls-9{fill:#005e9d;}.cls-10{fill:#e2baa8;}.cls-11{fill:#2d2b2c;}.cls-12{fill:#be8b79;}.cls-13{fill:#daa593;}.cls-14{fill:#e1b5a5;}.cls-15{fill:#382c2c;}</style></defs><rect class="cls-1" y="30.66" width="386.13" height="386.13"/><rect class="cls-2" x="797.06" y="594.49" width="26.82" height="18.71" transform="translate(-387.89 -776.6) rotate(17.79)"/><rect class="cls-3" x="700.65" y="589.97" width="42.37" height="175.26" transform="translate(-419.97 -716.06) rotate(14.4)"/><rect class="cls-4" x="671.86" y="804.11" width="30.36" height="94.48" transform="translate(-318.16 -727.05) rotate(17.79)"/><rect class="cls-4" x="812.66" y="905.87" width="9.13" height="52.74" transform="translate(-353.65 -731.79) rotate(14.4)"/><rect class="cls-5" x="705.32" y="885.53" width="5.23" height="59.66" transform="translate(-297.61 -730.38) rotate(17.79)"/><rect class="cls-6" x="694.12" y="885.53" width="5.23" height="59.66" transform="matrix(0.95, 0.31, -0.31, 0.95, -298.14, -726.95)"/><rect class="cls-6" x="708.7" y="832.98" width="10.47" height="36.74" transform="translate(-316.88 -735.27) rotate(17.79)"/><rect class="cls-5" x="118.11" y="319.01" width="16.43" height="16.43"/><rect class="cls-5" x="715.43" y="907.15" width="16.43" height="16.43" transform="translate(-296.85 -735.17) rotate(17.79)"/><rect class="cls-5" x="923.86" y="621.8" width="16.43" height="16.43" transform="translate(-374.08 -812.51) rotate(17.79)"/><rect class="cls-5" x="915.3" y="649.58" width="43.02" height="18.4" transform="translate(-365.06 -812.58) rotate(17.79)"/><rect class="cls-5" x="919.16" y="815.15" width="11" height="93.77" transform="translate(1175.53 -620.46) rotate(90)"/><rect class="cls-5" x="933.09" y="857.38" width="7.43" height="40.42" transform="translate(1079.65 -719.12) rotate(82.84)"/><rect class="cls-5" x="943.35" y="880.11" width="7.43" height="19.74" transform="translate(968.37 -803.19) rotate(75.9)"/><rect class="cls-5" x="748.01" y="916.31" width="80.81" height="19.15" transform="translate(-915.62 901.44) rotate(-75.6)"/><polygon class="cls-7" points="298.71 349.06 245.42 396.41 230.68 381.68 276.87 327.23 298.71 349.06"/><rect class="cls-6" x="804.81" y="567.04" width="7.55" height="358.04" transform="translate(-344.52 -769.23) rotate(17.79)"/><rect class="cls-5" x="680.07" y="647.77" width="3.01" height="128.95" transform="translate(-412.62 -704.96) rotate(14.4)"/><rect class="cls-5" x="880.06" y="566.59" width="23.82" height="76.94" transform="translate(-383.62 -801.45) rotate(17.79)"/><rect class="cls-5" x="904.91" y="606.77" width="10.41" height="54.12" transform="translate(-373.96 -805.62) rotate(17.79)"/><rect class="cls-8" x="596.81" y="750.47" width="109.14" height="15.92" transform="translate(-880.98 589.07) rotate(-72.21)"/><rect class="cls-8" x="930.63" y="811.42" width="44.8" height="15.92" transform="translate(-729.53 918.62) rotate(-72.21)"/><rect class="cls-9" x="789.89" y="659.42" width="169.59" height="169.59" transform="translate(-341.93 -789.51) rotate(17.79)"/><rect class="cls-8" x="634.59" y="616.6" width="109.14" height="7.96" transform="translate(-723.48 529.32) rotate(-72.21)"/><rect class="cls-8" x="630.35" y="607.03" width="109.14" height="7.96" transform="translate(-717.32 518.63) rotate(-72.21)"/><rect class="cls-5" x="767.31" y="961.96" width="58.33" height="10.13" transform="translate(-949.41 940.15) rotate(-75.6)"/><rect class="cls-2" x="818" y="581.2" width="17.52" height="12.22" transform="translate(-392.16 -782.37) rotate(17.79)"/><path class="cls-10" d="M810,918c6.82,0,13.86-3.33,18.53-2.26s10,1.86,18.41-.71,31.66-20,40.77-37.86c11.1-21.77,24.91-105.39,16.29-120.27-4-6.83,12.22-58.22-2.52-70.44S862,630.38,803.73,650.87s-100.62,110.34-98.1,131.36,8.62,64.39,13.41,74.14,30.5,37.92,44.8,45C778.4,908.54,803.17,918,810,918Z" transform="translate(-611.16 -557.84)"/><path class="cls-11" d="M684.53,798.59c1.13,6.45,18.83,36.23,21,35.88s-9.28-30.45-1-29.43c12.06,1.47,14.78-13.88,19-24.44,3.49-8.65,23.48-30.91,26.36-53.91,2.45-19.58,20-41.08,38.09-38.33,17.67,2.69,27.07,8.15,37.38,5s54.19-19.88,65.33,6.71,12.58,15.81,11.86,48.16c-.53,23.83,2.36,35.1,2.48,47a66.81,66.81,0,0,1-1.22,13.51c-3.59,18.93,7,13.12,14.14,6.74,6.4-5.75,21.57-53.07,16.9-84.09-4.85-32.15-10.74-85.17-74.35-103.86-28.38-8.34-74.43,3.59-105.7,7.9C715.24,640.88,702,667,692,707.29,678.22,762.75,683.39,792.13,684.53,798.59Z" transform="translate(-611.16 -557.84)"/><path class="cls-10" d="M711,804.32c-1.68-6.35-14.74-7.19-16.35-2s8.26,25.16,9.16,29.65,8.52,18.26,11.5,18.33a17.33,17.33,0,0,1,5.93,1.35S712.69,810.67,711,804.32Z" transform="translate(-611.16 -557.84)"/><path class="cls-10" d="M903.43,798.59s12.86-.56,12.86,10.7-9.15,22.82-11.31,30.25-7.86,20.36-11.21,15.09S903.43,798.59,903.43,798.59Z" transform="translate(-611.16 -557.84)"/><path class="cls-11" d="M842.19,766.05c-.47,2.36,27.85-8.63,40.25-2.22,6.26,3.24,8.14,9.34,9.1,8.86s4.79-18.92-3.83-18.92S846.26,754.49,842.19,766.05Z" transform="translate(-611.16 -557.84)"/><path class="cls-11" d="M753.54,759c-3.1,8.15,6.54-4.4,16.05-4.49,14.6-.15,34.41,5.3,39.06,8.7,7.66,5.61,3.67-3.06-1.44-6.78-4.51-3.28-28.15-13.18-42.65-10.25C758.26,747.49,756.54,751.15,753.54,759Z" transform="translate(-611.16 -557.84)"/><path class="cls-12" d="M786.94,867.81s27.93-12,31-11.26,8.15,3.35,9.82,3.35,6.47-4.37,8.15-3.38,19.4,8.17,24.2,10.33C844.1,864.45,818.42,858.94,786.94,867.81Z" transform="translate(-611.16 -557.84)"/><path class="cls-13" d="M836.44,784.37c1.81,8,1.68,24.06,5,30,2.13,3.79,8.65,9.77,3.59,12.76-3.95,2.33-7.19-2.16-10.13.82s-12.87,4-16.46.26c-2.28-2.4-8.52,4.17-11.5-1.62-3.24-6.29,7.55-9.88,9-28.93.56-7.38,2.34-16.44,2.34-21C818.29,770.36,835.51,780.29,836.44,784.37Z" transform="translate(-611.16 -557.84)"/><ellipse class="cls-14" cx="219.52" cy="259.42" rx="5.27" ry="3.59"/><path class="cls-15" d="M844.82,778.08c9.08-5.87,19.17-11.61,34,1.44C865.84,775.34,862.45,771.29,844.82,778.08Z" transform="translate(-611.16 -557.84)"/><path class="cls-15" d="M765.1,777.19c6.47-5.39,18.47-14.59,39.13-.22C788.42,771.94,778.94,769.64,765.1,777.19Z" transform="translate(-611.16 -557.84)"/><ellipse class="cls-15" cx="172.62" cy="217.46" rx="7.01" ry="5.3"/><ellipse class="cls-15" cx="249.82" cy="220.25" rx="7.08" ry="5.4"/><path class="cls-12" d="M776.66,858.7c-1.32-2.33,6.35-15.57,15.75-25.27C781.57,851.16,778,861,776.66,858.7Z" transform="translate(-611.16 -557.84)"/></svg>