<svg id="Слой_19" data-name="Слой 19" xmlns="http://www.w3.org/2000/svg" viewBox="0 0 60.54 63.09"><defs><style>.cls-1{fill:#e4f3f6;stroke:#accee1;}.cls-1,.cls-2,.cls-8{stroke-linecap:round;stroke-linejoin:round;}.cls-2{fill:#fcce9e;stroke:#f7ad7d;}.cls-3{fill:#504f4e;}.cls-4,.cls-6{fill:#e8b192;}.cls-5{fill:#a7816c;}.cls-6,.cls-7{stroke:#9a7561;stroke-miterlimit:10;}.cls-7{fill:none;}.cls-8{fill:#aece63;stroke:#8dbe22;}</style></defs><path class="cls-1" d="M9.89,39.09C6.94,35,4.27,27.74,7.31,22.87s11.18-4.47,14.45-1.95,3.61,6.76-1.38,9.06c-3.19,1.47-1.78,6.68-.35,10.24A2.74,2.74,0,0,1,17.23,44,8.74,8.74,0,0,1,9.89,39.09Z"/><path class="cls-2" d="M43.79,38.09c-1.89-.66-4.45-2.69-3.68-7.12s4-7.86,9.92-7.14,9.77,6.52,6.24,13.79C54.87,40.51,46.83,39.15,43.79,38.09Z"/><path class="cls-2" d="M38.32,31.59c.28-.53-1-2-1.85-2.15a1.39,1.39,0,0,0-1.78,1.33,3.27,3.27,0,0,0,.73,1.63A2.24,2.24,0,0,0,38.32,31.59Z"/><circle class="cls-3" cx="49.82" cy="30.51" r="1.03"/><circle class="cls-3" cx="44.2" cy="29.48" r="1.03"/><circle class="cls-3" cx="14.88" cy="25.65" r="1.03"/><circle class="cls-3" cx="20.18" cy="24.79" r="1.03"/><ellipse class="cls-4" cx="31.64" cy="33.14" rx="4.88" ry="1.74"/><ellipse class="cls-5" cx="31.64" cy="34.49" rx="4.88" ry="1.74"/><ellipse class="cls-6" cx="31.69" cy="41.75" rx="3.77" ry="1.66"/><polygon class="cls-4" points="27.92 41.75 27.14 34.88 36.25 34.88 35.47 41.75 27.92 41.75"/><line class="cls-6" x1="27.14" y1="34.88" x2="27.92" y2="41.85"/><line class="cls-6" x1="35.47" y1="41.85" x2="36.25" y2="34.88"/><line class="cls-7" x1="26.76" y1="33.14" x2="26.86" y2="34.63"/><line class="cls-6" x1="36.52" y1="33.05" x2="36.52" y2="34.63"/><path class="cls-1" d="M17.9,36.65c-.67,1,1.49,2.06,2.47,2.06s3.38-1.43,1.54-2.58A2.88,2.88,0,0,0,17.9,36.65Z"/><path class="cls-1" d="M27.58,29.67c-.38-.58-2.21-.14-2.9.62-1.53,1.7.79,2.41,2,2.11A1.82,1.82,0,0,0,27.58,29.67Z"/><path class="cls-8" d="M34.37,23.34c-1.17-.94-4,3.32-3.1,5S35.52,24.25,34.37,23.34Z"/><path class="cls-8" d="M25.88,26.27c-.81,1.25,3.72,3.65,5.34,2.56S26.68,25,25.88,26.27Z"/><path class="cls-2" d="M39.24,38.3c.94-.33,2.43.89,2.41,2.28a1.43,1.43,0,0,1-2.37,1C38.61,40.93,37.25,39,39.24,38.3Z"/><path class="cls-6" d="M36.52,34.49c0,1.29-2.16,2.33-4.83,2.33s-4.83-1-4.83-2.33"/><ellipse class="cls-7" cx="31.64" cy="33.14" rx="4.88" ry="1.74"/><path class="cls-8" d="M31.75,28.94a15.41,15.41,0,0,1-.11,4.54"/></svg>