<svg id="Слой_8" data-name="Слой 8" xmlns="http://www.w3.org/2000/svg" viewBox="0 0 1012.2 985.06"><defs><style>.cls-1{fill:#8ab75d;}.cls-2{fill:#4a2e27;}.cls-3{fill:#956051;}.cls-4{fill:#ebdac8;}.cls-5{fill:#b87d66;}.cls-6{fill:#dcc0a7;}.cls-7{fill:#e8bdb1;}.cls-8{fill:#c8a59a;}.cls-9{fill:#dda598;}.cls-10{fill:#8a7a7f;}.cls-11{fill:#92818a;}.cls-12{fill:#49392b;}</style></defs><path class="cls-1" d="M225.53,277.1C245.39,322.66-5.14,471.78,31.77,633.5,46.42,697.7,161.35,833.27,171,800.57S315.22,434.69,391.11,434.69,479,244.61,482.26,187.08,505.82,40.51,358.33,65.78,162.56,132.65,225.53,277.1Z" transform="translate(-28.05 -32.66)"/><path class="cls-1" d="M724.55,108.35c36.84-68,237.55-10.14,227.77,91.68-21.68,225.76,108.53,331.72,33.06,450C934.14,730.28,629.37,284,724.55,108.35Z" transform="translate(-28.05 -32.66)"/><path class="cls-1" d="M151.76,838.19c13,106.69,238.37,174.14,333.8,178.69,249.28,11.89,454-104.71,467-168.61S138.76,731.5,151.76,838.19Z" transform="translate(-28.05 -32.66)"/><rect class="cls-2" x="169.53" y="198.44" width="569.11" height="558.14"/><rect class="cls-3" x="123.12" y="201.31" width="92.82" height="663.55"/><rect class="cls-3" x="754.92" y="291.68" width="97.7" height="383.38"/><rect class="cls-3" x="56.4" y="567.31" width="867.87" height="288.59"/><rect class="cls-4" x="38.93" y="842.67" width="759.96" height="44.38" rx="5"/><rect class="cls-5" x="666.18" y="574.11" width="331.37" height="320.88"/><rect class="cls-4" x="38.93" y="547.03" width="973.27" height="44.38" rx="5"/><rect class="cls-4" x="24.27" y="260.62" width="856.03" height="62.14" rx="5"/><rect class="cls-4" x="86.15" y="167.37" width="358.82" height="62.14" rx="5"/><rect class="cls-2" x="454.08" y="28.71" width="162.43" height="524.33"/><rect class="cls-3" x="382.48" y="28.71" width="124.98" height="721.36"/><rect class="cls-6" x="352.67" width="171.44" height="44.38" rx="5"/><rect class="cls-3" x="551.38" y="56.39" width="229.6" height="488.93"/><rect class="cls-4" x="507.46" y="24.43" width="305.29" height="44.38" rx="5"/><rect class="cls-4" x="645.82" y="864.65" width="366.38" height="44.38" rx="5"/><rect class="cls-5" x="702.48" y="68.6" width="78.5" height="476.72"/><path class="cls-7" d="M321.84,616.81S366,749.28,387.65,773.53s60.6,51.94,71.86,55.41,13.85,16.45,35.5,16.45,110.82-12.12,135.07-45S745.23,662.7,740.9,650.58s-4.33-136.8-4.33-136.8,49.36-192.22-58-245.9S508,206.41,441.33,236.71,283.75,337.15,284.61,418.54,321.84,616.81,321.84,616.81Z" transform="translate(-28.05 -32.66)"/><path class="cls-8" d="M425.74,728.94s7.82-101.56,11.35-109c21.46-45.42,6.36-1,5.36,1.53C442.45,621.43,437.09,645.09,425.74,728.94Z" transform="translate(-28.05 -32.66)"/><path class="cls-8" d="M536.21,612.33s75.49,70.86,67.42,61.56c-10.39-12-49.13-52.42-57.25-62.56C538,600.91,530,600.71,527,598.11,508.2,582,536.21,612.33,536.21,612.33Z" transform="translate(-28.05 -32.66)"/><path class="cls-9" d="M446.09,511.18c-3.06-5.2,14.86,48.63,5.63,74s-17.9,38.67-11.55,47.33,24.25-4.62,29.44,0,26.55,1.73,26.55-2.31S516,620,521,622.2c15.54,6.73,16.09-8.38,15.51-13s-31.38-29.33-36-42S461,536.51,446.09,511.18Z" transform="translate(-28.05 -32.66)"/><path class="cls-8" d="M443.71,748.63c4.83-15.37,33.64-42.64,43.6-42.64a161.16,161.16,0,0,0,23-1.79s4.16-3.68,16.67-8.18c6.53-2.35,16.23-.13,29.08,0,37.66.44,52.38,4.55,52.38,4.55a279.58,279.58,0,0,0-69,7.14c-10.92,2.58-19.4,8-30.3,11-11.64,3.25-18.23-.18-27.93,3C467.41,726.35,451.73,738.16,443.71,748.63Z" transform="translate(-28.05 -32.66)"/><path class="cls-10" d="M319.25,605.55c3.46,11.26-41-31.4-50.22-52.81-21.65-50.19-54.56-128.64-14.14-187,38.62-55.79,40.72-66.39,81.67-94.37C379.4,242.06,527,201.5,557.35,205.54c101.59,13.56,163.35,54,185.28,76.2,17.18,17.39,89.18,103,86.59,136.8s41,131.37-73.6,241c-9.52,9.11-16.45,12.92-31.07,21,3.58-8.53,17.51-37.18,17.51-37.18s48.2-167.68,32.61-157.29-46.75,60.61-48.49,36.37-38.09-71.87-51.95-116-77.92-136.8-120.35-136.8S438.73,306,424.88,318.1s-43.3-11.26-51.95-19.05-83.12,87.45-83.12,104.77S319.25,605.55,319.25,605.55Z" transform="translate(-28.05 -32.66)"/><path class="cls-7" d="M737.87,650.14s14.72,3.9,21.65-6.49,26.41-46.32,22.08-62.77,4.7-78.36.62-86.58-16.64-15.59-26.6-12.56-20.78,36.8-20.78,36.8Z" transform="translate(-28.05 -32.66)"/><path class="cls-10" d="M725.29,516.89s-2.86,15.64,2.63,15.35,50.79-42.13,51.66-46.17S744,452.47,725.29,516.89Z" transform="translate(-28.05 -32.66)"/><path class="cls-11" d="M327.9,505.12s11.55-50.8,50.22-42.14S338.29,481.16,327.9,505.12Z" transform="translate(-28.05 -32.66)"/><path class="cls-11" d="M584.77,435.85c-18.14-10.54-65.23-13.27-70.14,0S588.46,438,584.77,435.85Z" transform="translate(-28.05 -32.66)"/><ellipse class="cls-7" cx="472.06" cy="601.63" rx="13.9" ry="7.67" transform="translate(-149.96 87.3) rotate(-12.84)"/><path class="cls-12" d="M510.59,505.12c4.76-10.17,46.11-58.23,85.94-15.37C572.72,480,559.73,462.69,510.59,505.12Z" transform="translate(-28.05 -32.66)"/><path class="cls-12" d="M354.31,542.57c6.49-12.56,21.43-55.85,73.6-20.13C396.3,514.43,381.58,503.39,354.31,542.57Z" transform="translate(-28.05 -32.66)"/><ellipse class="cls-12" cx="363.06" cy="491.63" rx="13.42" ry="12.22"/><circle class="cls-12" cx="534.31" cy="454.14" r="13.58"/></svg>