<svg id="Слой_19" data-name="Слой 19" xmlns="http://www.w3.org/2000/svg" viewBox="0 0 60.54 63.09"><defs><style>.cls-1{fill:#e4f3f6;stroke:#accee1;}.cls-1,.cls-3,.cls-4,.cls-5{stroke-linecap:round;stroke-linejoin:round;}.cls-2{fill:#504f4e;}.cls-3{fill:#fcce9e;stroke:#f7ad7d;}.cls-4{fill:#ffefc4;}.cls-4,.cls-5{stroke:#f5e299;}.cls-5{fill:none;}</style></defs><path class="cls-1" d="M9.79,38.09C6.84,34,4.17,26.73,7.21,21.86s11.18-4.47,14.45-1.95,3.61,6.77-1.38,9.06c-3.19,1.47-1.78,6.68-.35,10.24A2.75,2.75,0,0,1,17.14,43,8.76,8.76,0,0,1,9.79,38.09Z"/><path class="cls-1" d="M1.41,35.85c-.67,1,1.49,2.07,2.47,2.07s3.38-1.44,1.54-2.58A2.88,2.88,0,0,0,1.41,35.85Z"/><circle class="cls-2" cx="14.1" cy="23.82" r="1.03"/><circle class="cls-2" cx="18.85" cy="22.61" r="1.03"/><path class="cls-1" d="M26.78,30c-.38-.58-2.22-.14-2.9.62-1.54,1.71.79,2.41,2,2.11A1.83,1.83,0,0,0,26.78,30Z"/><path class="cls-3" d="M45.27,39.94c-1.89-.66-4.44-2.69-3.68-7.12s4-7.86,9.92-7.14,9.77,6.52,6.24,13.79C56.35,42.36,48.31,41,45.27,39.94Z"/><path class="cls-3" d="M34.15,32.32c.58-.81,2.5-.68,3.29.46A1.44,1.44,0,0,1,36.09,35C35.17,34.83,32.93,34,34.15,32.32Z"/><circle class="cls-2" cx="50.27" cy="31.57" r="1.03"/><circle class="cls-2" cx="46.06" cy="30.54" r="1.03"/><path class="cls-3" d="M41.24,40.65c-.07-.6-1.93-1-2.75-.69a1.39,1.39,0,0,0-.68,2.12,3.27,3.27,0,0,0,1.54.91A2.25,2.25,0,0,0,41.24,40.65Z"/><circle class="cls-4" cx="30.16" cy="23.28" r="1.85"/><circle class="cls-4" cx="37.57" cy="24.61" r="1.83"/><polyline class="cls-5" points="32.01 23.27 32.01 14.38 39.4 16.08 39.4 24.38"/></svg>