<svg id="Слой_19" data-name="Слой 19" xmlns="http://www.w3.org/2000/svg" viewBox="0 0 60.54 63.09"><defs><style>.cls-1{fill:#ffefc4;}.cls-1,.cls-5{stroke:#f5e299;}.cls-1,.cls-2,.cls-4,.cls-5{stroke-linecap:round;stroke-linejoin:round;}.cls-2{fill:#e4f3f6;stroke:#accee1;}.cls-3{fill:#504f4e;}.cls-4{fill:#fcce9e;stroke:#f7ad7d;}.cls-5{fill:none;}</style></defs><polygon class="cls-1" points="57.78 59.7 7.64 59.7 2.19 55.01 52.34 55.01 57.78 59.7"/><polygon class="cls-1" points="57.78 57.35 7.64 57.35 2.19 52.67 52.34 52.67 57.78 57.35"/><polygon class="cls-1" points="2.19 52.67 2.19 55.01 7.64 59.7 57.78 59.7 57.78 57.35 7.64 57.35 2.19 52.67"/><path class="cls-2" d="M14.78,54.8c-2.94-4.12-5.61-11.35-2.58-16.23s11.18-4.47,14.45-1.94,3.61,6.76-1.38,9c-3.19,1.47-1.78,6.68-.35,10.25a2.74,2.74,0,0,1-2.79,3.76A8.77,8.77,0,0,1,14.78,54.8Z"/><circle class="cls-3" cx="21.19" cy="40.9" r="1.03"/><circle class="cls-3" cx="25.66" cy="40.9" r="1.03"/><path class="cls-2" d="M29.06,51.38c-.37-.58-2.21-.14-2.89.62-1.54,1.71.79,2.41,2,2.11A1.82,1.82,0,0,0,29.06,51.38Z"/><path class="cls-4" d="M47.43,53.79c1.89-.66,4.45-2.68,3.68-7.11s-4-7.86-9.92-7.15S31.42,46.05,35,53.32C36.35,56.22,44.39,54.85,47.43,53.79Z"/><path class="cls-4" d="M37.15,53.17c-.58-.81-2.5-.68-3.29.46a1.44,1.44,0,0,0,1.35,2.2C36.14,55.68,38.38,54.87,37.15,53.17Z"/><circle class="cls-3" cx="42.43" cy="45.58" r="1.03"/><circle class="cls-3" cx="47.24" cy="45.58" r="1.03"/><path class="cls-2" d="M3.72,44.05c-.68,1,1.49,2.07,2.46,2.07s3.39-1.44,1.55-2.58A2.88,2.88,0,0,0,3.72,44.05Z"/><path class="cls-4" d="M53.36,43.78c.07-.6,1.93-1,2.75-.69a1.39,1.39,0,0,1,.68,2.12,3.24,3.24,0,0,1-1.54.9A2.23,2.23,0,0,1,53.36,43.78Z"/><line class="cls-5" x1="5.14" y1="55.06" x2="5.14" y2="3.39"/><line class="cls-5" x1="55.2" y1="55.06" x2="55.2" y2="3.39"/></svg>