<svg id="Андре_Курреж" data-name="Андре Курреж" xmlns="http://www.w3.org/2000/svg" xmlns:xlink="http://www.w3.org/1999/xlink" viewBox="0 0 1174.69 1307.42"><defs><style>.cls-1{fill:none;}.cls-2{fill:#ffe57f;}.cls-3{clip-path:url(#clip-path);}.cls-4{fill:#fffae1;}.cls-5{fill:#6dc6d6;}.cls-6{clip-path:url(#clip-path-2);}.cls-7{fill:#f1f9fe;}.cls-8{clip-path:url(#clip-path-3);}.cls-9{fill:#fef3f2;}.cls-10{fill:#e86152;stroke:#e86152;stroke-miterlimit:10;}.cls-11{fill:#e8bdb1;}.cls-12{fill:#392612;}.cls-13{fill:#111;}.cls-14{fill:#e7e6e6;}.cls-15{fill:#e6a99d;}.cls-16{fill:#fefcf0;}.cls-17{fill:#c8a59a;}</style><clipPath id="clip-path" transform="translate(56.42 93.25)"><path class="cls-1" d="M69.33,712l472.59,304.25a6.37,6.37,0,0,0,8.29-1.22l482.07-564.68a6.36,6.36,0,0,0-1.4-9.48L413.58,43.47a6.36,6.36,0,0,0-9.11,2.44L67.12,703.77A6.35,6.35,0,0,0,69.33,712Z"/></clipPath><clipPath id="clip-path-2" transform="translate(56.42 93.25)"><path class="cls-1" d="M657.77,136.22,162.18,184.86a6.36,6.36,0,0,0-5.74,6.56l18.88,542.31a6.36,6.36,0,0,0,7,6.1l562.33-58.66a6.37,6.37,0,0,0,5.62-7.34L664.67,141.55A6.37,6.37,0,0,0,657.77,136.22Z"/></clipPath><clipPath id="clip-path-3" transform="translate(56.42 93.25)"><path class="cls-1" d="M884.19,395.61,499.75,344.46a6.37,6.37,0,0,0-7,4.63L357.48,843.9a6.37,6.37,0,0,0,5.3,8L865.1,918.71a6.36,6.36,0,0,0,7.2-6.09l17.41-510.49A6.35,6.35,0,0,0,884.19,395.61Z"/></clipPath></defs><path class="cls-2" d="M69.33,712l472.59,304.25a6.37,6.37,0,0,0,8.29-1.22l482.07-564.68a6.36,6.36,0,0,0-1.4-9.48L413.58,43.47a6.36,6.36,0,0,0-9.11,2.44L67.12,703.77A6.35,6.35,0,0,0,69.33,712Z" transform="translate(56.42 93.25)"/><g class="cls-3"><rect class="cls-4" x="778.35" y="209.93" width="79.82" height="1055.78" transform="translate(538.54 -218.18) rotate(30.2)"/><rect class="cls-4" x="637.65" y="103.79" width="79.82" height="1055.78" transform="translate(466.06 -161.81) rotate(30.2)"/><rect class="cls-4" x="491.53" y="34.79" width="79.82" height="1055.78" transform="translate(411.53 -97.69) rotate(30.2)"/><rect class="cls-4" x="346.83" y="-54.86" width="79.82" height="1055.78" transform="matrix(0.86, 0.5, -0.5, 0.86, 346.81, -37.08)"/><rect class="cls-4" x="203.66" y="-144.81" width="79.82" height="1055.78" transform="translate(282.15 22.73) rotate(30.2)"/></g><path class="cls-5" d="M657.77,136.22,162.18,184.86a6.36,6.36,0,0,0-5.74,6.56l18.88,542.31a6.36,6.36,0,0,0,7,6.1l562.33-58.66a6.37,6.37,0,0,0,5.62-7.34L664.67,141.55A6.37,6.37,0,0,0,657.77,136.22Z" transform="translate(56.42 93.25)"/><g class="cls-6"><rect class="cls-7" x="385.4" y="-103.4" width="50.74" height="648.41" transform="translate(640.65 -118.84) rotate(83.58)"/><rect class="cls-7" x="392.84" y="-6.25" width="50.74" height="648.41" transform="translate(743.8 -39.95) rotate(83.58)"/><rect class="cls-7" x="403.36" y="95.77" width="50.74" height="648.41" transform="translate(854.52 40.21) rotate(83.58)"/><rect class="cls-7" x="418.73" y="203.78" width="50.74" height="648.41" transform="translate(975.5 120.85) rotate(83.58)"/><rect class="cls-7" x="428" y="306.06" width="50.74" height="648.41" transform="translate(1085.37 202.47) rotate(83.58)"/></g><g class="cls-8"><rect class="cls-9" x="135.11" y="88.84" width="911.22" height="911.22" transform="translate(123.04 28.86) rotate(6.61)"/><rect class="cls-10" x="183.66" y="45.6" width="113.9" height="113.9" transform="translate(69.83 66.23) rotate(6.61)"/><rect class="cls-10" x="283.69" y="171.86" width="113.9" height="113.9" transform="translate(85.03 55.56) rotate(6.61)"/><rect class="cls-10" x="409.95" y="71.82" width="113.9" height="113.9" transform="translate(74.36 40.35) rotate(6.61)"/><rect class="cls-10" x="509.98" y="198.08" width="113.9" height="113.9" transform="translate(89.56 29.68) rotate(6.61)"/><rect class="cls-10" x="636.24" y="98.05" width="113.9" height="113.9" transform="translate(78.88 14.47) rotate(6.61)"/><rect class="cls-10" x="736.27" y="224.31" width="113.9" height="113.9" transform="translate(94.08 3.8) rotate(6.61)"/><rect class="cls-10" x="862.53" y="124.28" width="113.9" height="113.9" transform="translate(83.4 -11.4) rotate(6.61)"/><rect class="cls-10" x="962.56" y="250.54" width="113.9" height="113.9" transform="translate(98.61 -22.08) rotate(6.61)"/><rect class="cls-10" x="157.43" y="271.89" width="113.9" height="113.9" transform="translate(95.71 70.76) rotate(6.61)"/><rect class="cls-10" x="257.46" y="398.15" width="113.9" height="113.9" transform="translate(110.91 60.08) rotate(6.61)"/><rect class="cls-10" x="383.72" y="298.11" width="113.9" height="113.9" transform="translate(100.23 44.88) rotate(6.61)"/><rect class="cls-10" x="483.75" y="424.37" width="113.9" height="113.9" transform="translate(115.44 34.2) rotate(6.61)"/><rect class="cls-10" x="610.01" y="324.34" width="113.9" height="113.9" transform="translate(104.76 19) rotate(6.61)"/><rect class="cls-10" x="710.04" y="450.6" width="113.9" height="113.9" transform="translate(119.96 8.32) rotate(6.61)"/><rect class="cls-10" x="836.3" y="350.57" width="113.9" height="113.9" transform="translate(109.28 -6.88) rotate(6.61)"/><rect class="cls-10" x="936.33" y="476.83" width="113.9" height="113.9" transform="translate(124.49 -17.56) rotate(6.61)"/><rect class="cls-10" x="131.2" y="498.18" width="113.9" height="113.9" transform="translate(121.59 75.28) rotate(6.61)"/><rect class="cls-10" x="231.23" y="624.44" width="113.9" height="113.9" transform="matrix(0.99, 0.12, -0.12, 0.99, 136.79, 64.6)"/><rect class="cls-10" x="357.49" y="524.4" width="113.9" height="113.9" transform="translate(126.11 49.4) rotate(6.61)"/><rect class="cls-10" x="457.52" y="650.66" width="113.9" height="113.9" transform="translate(141.32 38.73) rotate(6.61)"/><rect class="cls-10" x="583.78" y="550.63" width="113.9" height="113.9" transform="translate(130.64 23.52) rotate(6.61)"/><rect class="cls-10" x="683.81" y="676.89" width="113.9" height="113.9" transform="matrix(0.99, 0.12, -0.12, 0.99, 145.84, 12.85)"/><rect class="cls-10" x="810.07" y="576.86" width="113.9" height="113.9" transform="translate(135.16 -2.36) rotate(6.61)"/><rect class="cls-10" x="910.1" y="703.12" width="113.9" height="113.9" transform="translate(150.36 -13.03) rotate(6.61)"/><rect class="cls-10" x="104.97" y="724.47" width="113.9" height="113.9" transform="translate(147.47 79.81) rotate(6.61)"/><rect class="cls-10" x="205.01" y="850.73" width="113.9" height="113.9" transform="translate(162.67 69.13) rotate(6.61)"/><rect class="cls-10" x="331.26" y="750.69" width="113.9" height="113.9" transform="translate(151.99 53.93) rotate(6.61)"/><rect class="cls-10" x="431.3" y="876.95" width="113.9" height="113.9" transform="translate(167.19 43.25) rotate(6.61)"/><rect class="cls-10" x="557.55" y="776.92" width="113.9" height="113.9" transform="translate(156.52 28.05) rotate(6.61)"/><rect class="cls-10" x="657.59" y="903.18" width="113.9" height="113.9" transform="translate(171.72 17.37) rotate(6.61)"/><rect class="cls-10" x="783.85" y="803.15" width="113.9" height="113.9" transform="translate(161.04 2.17) rotate(6.61)"/><rect class="cls-10" x="883.88" y="929.41" width="113.9" height="113.9" transform="translate(176.24 -8.51) rotate(6.61)"/></g><path class="cls-11" d="M358.1,642.27S386.57,737.18,434,772.43s52.88,65.08,100.33,65.08,99-16.27,104.4-44.75S693,703.28,693,620.58s25-111.73,26.39-137.49-10.12-164.85-52.15-196-209.69-89-271.16-33.89C318.19,323,290.31,405,298.45,451.1S358.1,642.27,358.1,642.27Z" transform="translate(56.42 93.25)"/><path class="cls-11" d="M693.12,614.4c8.44-6,31.7-24.7,28.33-49.11-3.18-23,15.41-25,16.87-46.7,2.72-40.07,1-52.52-13.5-45S694.37,558.48,693.3,569,693.12,614.4,693.12,614.4Z" transform="translate(56.42 93.25)"/><path class="cls-11" d="M363.82,639.11s-21.09,8.43-36.15-16.27-28-46.4-36.3-62.67-20.94-69.3,3.16-62.06,46.4,54.23,56.64,86.77S363.82,639.11,363.82,639.11Z" transform="translate(56.42 93.25)"/><path class="cls-12" d="M300.25,498.41s52.43,72.25,52.43,45.79c0-67.18-14.77-125.94-8.14-147.33,8-25.75,36.16-135.27,135.58-143.41s165.41,24.4,183.49,73.21,39.77,90.39,38,144.62-18.77,126.54.1,75,34.24-125.64,12.55-169.92-39.77-146.88-117.5-150.5c-91.27-4.24-152.3-13.1-207.83,18.53-54.07,30.81-101.77,129.36-97.22,204.73C292.57,464.12,300.25,498.41,300.25,498.41Z" transform="translate(56.42 93.25)"/><path class="cls-13" d="M456,693.34s44.51,46.34,79.54,46.4c51.82.08,110.33-83.57,87.37-66.89C541.66,731.9,435.53,678.28,456,693.34Z" transform="translate(56.42 93.25)"/><path class="cls-14" d="M478,695.72s-1.66,7.62,0,9.47,40.84,10.44,55,9.54c13-.83,64.62-11.45,66.88-16.87s.51-11,0-11.38C575.78,697.11,536.16,706.22,478,695.72Z" transform="translate(56.42 93.25)"/><path class="cls-15" d="M558.31,532s13.42,72.75,23.65,74c8.88,1,31.93,1.95,21.69,27.71-5.85,14.7-22.3,8.59-36.76,28.93-9.66,13.58-31.33,7.23-39.17,0s-5.42-1.81-26.51-9.64-12.95-34.35-3.92-41,28-15.82,27.12-63.72C547.91,529.59,558.31,532,558.31,532Z" transform="translate(56.42 93.25)"/><ellipse class="cls-11" cx="609.33" cy="715.19" rx="17.6" ry="9.94"/><path class="cls-12" d="M572.32,528.84s22.29-27.72,62.66-24.71c20.63,1.54,28.53,3.08,31.32,4.22S663,493,627.15,491.48c-35.52-1.5-56.64,16.27-56.64,16.27Z" transform="translate(56.42 93.25)"/><path class="cls-12" d="M405.4,525.22s59.72-16.82,90.39.6c10.69,6.08,15.67,9,15.67,9s3-19.28-1.21-24.1S427.7,489.67,405.4,525.22Z" transform="translate(56.42 93.25)"/><path class="cls-12" d="M432.22,545.11S463,514.38,494,541.79" transform="translate(56.42 93.25)"/><path class="cls-12" d="M454.21,545.11c-2,9.73,24.1,7.53,24.1,0S457.22,530.64,454.21,545.11Z" transform="translate(56.42 93.25)"/><path class="cls-12" d="M651,528.84c-22-11.8-29.15-15.67-48.36-6l-9.49,6" transform="translate(56.42 93.25)"/><path class="cls-12" d="M604.7,532.27c0,9,28.3,6.44,21.77-4.07S604.7,519.29,604.7,532.27Z" transform="translate(56.42 93.25)"/><path class="cls-11" d="M465.22,692.73s80.67,26.49,136.85-7.31" transform="translate(56.42 93.25)"/><path class="cls-16" d="M543.19,516.55a147.94,147.94,0,0,0-16.85,1.57s-9.11,4.26-3,17.76-12.43,42.28-36.24,59.71-56.68,21.16-79.57,8.77c-36.54-19.79-36.56-54.57-52.09-66-5.65-4.15-5.34-3.57-5.34-3.57S344,508.66,350,500.07c31-35.46,45.93-33.22,81.07-36.06s83.72,34.13,87.2,36.29,24,.1,24,.1,19.44.62,22.76-1.79,49.11-42.78,84.36-42.48,50-3,83.45,30.13c6.63,8.14,2.42,34.64,2.42,34.64s.26-.6-5.07,4c-14.67,12.51-12.18,47.2-47.21,69.57-21.93,14-55,12.66-80-3s-45.57-43-40.45-56.94-4.27-17.5-4.27-17.5Z" transform="translate(56.42 93.25)"/><path class="cls-12" d="M573.88,534.47l2,6.63s65.25-38.88,134.2-3.74c2.74-5.53,2.72-8.23,2.72-8.23S649.65,493.94,573.88,534.47Z" transform="translate(56.42 93.25)"/><path class="cls-12" d="M513.69,539.27,512.18,546S444.49,511.58,378,551.24c-3.11-5.33-3.27-8-3.27-8S435.39,503.89,513.69,539.27Z" transform="translate(56.42 93.25)"/><path class="cls-17" d="M434.2,703.15s-16.86-30.18-7.43-37.07,57.6-44.56,57.52-44.14C436.38,665.25,423.74,668.54,434.2,703.15Z" transform="translate(56.42 93.25)"/><path class="cls-17" d="M612.39,620.85s42,31.09,42.89,43-14.08,39.67-14.08,39.67C655.31,660.22,652.47,657.5,612.39,620.85Z" transform="translate(56.42 93.25)"/></svg>