<svg id="Слой_1" data-name="Слой 1" xmlns="http://www.w3.org/2000/svg" viewBox="0 0 70 60"><defs><style>.cls-1{font-size:9px;fill:#f7ad7d;font-family:Zametka_Parletter;}.cls-2,.cls-5{fill:#ffefc4;}.cls-3{fill:#e4f3f6;stroke:#accee1;}.cls-3,.cls-4,.cls-5,.cls-7{stroke-linecap:round;stroke-linejoin:round;}.cls-4{fill:#fcce9e;stroke:#f7ad7d;}.cls-5,.cls-7{stroke:#f5e299;}.cls-6{fill:#504f4e;}.cls-7{fill:none;stroke-width:0.5px;}</style></defs><text class="cls-1" transform="translate(12.33 48.79)">КОСМИРИК</text><rect class="cls-2" x="31.71" y="33.45" width="6.76" height="1.26"/><path class="cls-3" d="M18.12,29.43c-5-6.94-5.62-11.35-2.58-16.23S26.72,8.73,30,11.26s3.61,6.76-1.38,9S29.87,34,29.87,34"/><path class="cls-4" d="M40.25,29.41s-4.45-2.68-3.68-7.12,4-7.85,9.92-7.14S58.24,21.29,53,31.05"/><path class="cls-5" d="M57.67,34S57.35,22.49,35,31.51C12.65,22.49,12.33,34,12.33,34"/><path class="cls-5" d="M9.61,34.47s18.4.1,22.15,0c-.69,3.4,7.14,3.4,6.79,0,4.85.1,21.84,0,21.84,0"/><path class="cls-3" d="M15.83,27.61c-.67,1,1.49,2.06,2.46,2.06s3.39-1.43,1.55-2.58A2.89,2.89,0,0,0,15.83,27.61Z"/><path class="cls-4" d="M51.51,27.47c.58-.81,2.49-.67,3.28.47a1.43,1.43,0,0,1-1.34,2.19C52.52,30,50.28,29.18,51.51,27.47Z"/><circle class="cls-6" cx="24.08" cy="15.48" r="1.03"/><circle class="cls-6" cx="44.53" cy="21.69" r="1.03"/><circle class="cls-6" cx="29.39" cy="15.66" r="1.03"/><circle class="cls-6" cx="40.97" cy="20.24" r="1.03"/><path class="cls-3" d="M32.35,22.85c-.38-.58-2.22-.14-2.9.62-1.54,1.7.79,2.41,2,2.11A1.83,1.83,0,0,0,32.35,22.85Z"/><path class="cls-4" d="M41.78,28.33c-.08-.6-1.93-1-2.76-.69a1.39,1.39,0,0,0-.67,2.12,3.15,3.15,0,0,0,1.54.9A2.23,2.23,0,0,0,41.78,28.33Z"/><line class="cls-7" x1="33.76" y1="34.08" x2="36.48" y2="34.08"/></svg>