<svg xmlns="http://www.w3.org/2000/svg" viewBox="0 0 305.92 386.35"><defs><style>.cls-1{fill:#9b5e26;}.cls-2{fill:#d6aa9d;}.cls-3{fill:#a76a29;}.cls-4{fill:#382c2c;}.cls-5{fill:#c49386;}.cls-6{fill:#a8554d;}.cls-7{fill:#1f193b;}</style></defs><g id="Слой_12" data-name="Слой 12"><path class="cls-1" d="M548.25,741.4c-10-6.46-130.48-44.53-130.11-16.55S410.25,629,410.25,629L562,691.83,548.25,741.4" transform="translate(-352.8 -401.54)"/></g><g id="Слой_9" data-name="Слой 9"><path class="cls-1" d="M628.66,610.18c2.75,102.73,4.59,139.42,11.92,154.83-43.53-1.33-73.19-16-92.33-23.61-2.87-15.94,6.12-64.26,6.12-64.26Z" transform="translate(-352.8 -401.54)"/></g><g id="Слой_7" data-name="Слой 7"><path class="cls-2" d="M472,669.14c15.67,16.73,62.44,40.73,79.18,40.73,19.57,0,43.23-8.82,65.73-47.11,5.8-9.86,13.81-22.85,12.9-95.79,16.5-41,22.18-85.7.08-123.08s-158.76-67.46-196.36,7.3S434.4,629,472,669.14Z" transform="translate(-352.8 -401.54)"/></g><g id="Слой_8" data-name="Слой 8"><path class="cls-3" d="M589.68,457.48c-45.84,3.14-97.44,8.46-110.28,44.23s-32.11,267.11-11.93,282.7S351,759.64,352.82,735.8,382.17,477.15,450,424.87c40-30.79,104.57-29.7,147.67-4.94,46.71,3.1,64.21,54.46,39.44,126C628.9,479,610.51,456.06,589.68,457.48Z" transform="translate(-352.8 -401.54)"/><path class="cls-3" d="M511.45,533.17c12.63-3.64,33.29-5.33,51.92,3.81,4.58,2.25-.56,8.73-1.11,9.45C553.72,537.92,529.49,534.07,511.45,533.17Z" transform="translate(-352.8 -401.54)"/><path class="cls-3" d="M634.24,551.8A35.17,35.17,0,0,0,604.47,544c-3.31.6-3.6,6.37-2.62,7.53C610.59,548.48,623.38,549,634.24,551.8Z" transform="translate(-352.8 -401.54)"/></g><g id="Слой_10" data-name="Слой 10"><path class="cls-4" d="M503.42,558.45s21.33-25,49.22.77c-17.63-7-23.16-8.28-28-7.42C514.66,553.56,503.42,558.45,503.42,558.45Z" transform="translate(-352.8 -401.54)"/><path class="cls-4" d="M535,556.54c0,3.74-1.72,6.77-6.65,6.77s-7.34-3-7.34-6.77,2.4-6.76,7.34-6.76S535,552.81,535,556.54Z" transform="translate(-352.8 -401.54)"/><path class="cls-4" d="M594.76,567.55s14.37-22.17,33.63.64c-17.63-7-18.65-5.6-23.54-4.74C594.92,565.21,594.76,567.55,594.76,567.55Z" transform="translate(-352.8 -401.54)"/><path class="cls-4" d="M613.56,567.06c0,3.12-1.43,5.64-5.54,5.64s-6.12-2.52-6.12-5.64,2-5.63,6.12-5.63S613.56,564,613.56,567.06Z" transform="translate(-352.8 -401.54)"/><path class="cls-5" d="M552.64,605c-.44,11.88,12.61,7.33,12.61,7.33,7.57,7.11,18.92,6.88,25.57,3.22,8,1.26,10.47-9.18,5.16-12.16-5.12-2.87-8.25-40.51-6.88-46.16-10.78,5.35-10.4-1.88-14.67,6.72C568,576.88,563,590.6,559.75,593.75,557.27,596.14,552.87,598.8,552.64,605Z" transform="translate(-352.8 -401.54)"/><path class="cls-2" d="M589.68,603.78c0,3.74-3.79,4.28-7.42,4.4-4,.12-6.85-1.94-6.51-5.66s3.87-4.48,7.42-4.39C588.11,598.26,589.72,600.71,589.68,603.78Z" transform="translate(-352.8 -401.54)"/><path class="cls-6" d="M576.63,648.43c2.35,1.62,9,4.07,23.25,6-7.29.23-45.72,2-71.17-4.45,24.53.86,28.34-.13,36-3.34C564.72,646.66,568.92,650.73,576.63,648.43Z" transform="translate(-352.8 -401.54)"/></g><g id="Слой_11" data-name="Слой 11"><path class="cls-7" d="M658,558.21c-.85-2-19.8-19.72-65.66-3.67-12.23-.76-17.66-1.37-17.66-1.37-7.1-6.73-19.27-15-28.5-17.13-12.19-2.82-46.83-3-52.06.77-5,3.51-1.14,39.73,8.26,53,34.62,12.23,49.45,7.28,56.94-2.22s12.68-24.69,15.36-28.2c4.24,0,15.52,0,15.52,0s-.51,35.65,6.47,38.69,40.39,8.85,45.59,6.1,12.39-36.23,14.52-39.13C658.81,562.38,659.27,561,658,558.21ZM550,589.85c-9.25,5.37-35.08.69-43.11-3.89s-10.19-40.11-7.75-43.8c3.06-4.62,36.41-4.16,46.58-1,4.62,1.42,22.21,13.14,23.59,15.36S563,582.33,550,589.85Zm102.81-28.54c-2.07,2.75-8.37,32.59-12.27,38.33s-39.29-3.37-41.7-6c-1.51-1.65-6.8-13.8-4.12-34.2C636,542.69,654.91,558.55,652.85,561.31Z" transform="translate(-352.8 -401.54)"/></g></svg>